<?xml version="1.0" encoding="utf-8"?>
<!-- Generator: Adobe Illustrator 27.1.1, SVG Export Plug-In . SVG Version: 6.00 Build 0)  -->
<svg version="1.1" xmlns="http://www.w3.org/2000/svg" xmlns:xlink="http://www.w3.org/1999/xlink" x="0px" y="0px"
	 viewBox="0 0 698.3 179.2" style="enable-background:new 0 0 698.3 179.2;" xml:space="preserve">
<style type="text/css">
	.st0{fill:#050400;}
	.st1{display:none;fill:#050400;}
	.st2{fill:#060400;}
	.st3{fill:#FFFFFF;}
	.st4{display:none;fill:#FFFFFF;}
	.st5{fill:none;stroke:#000000;stroke-width:27;stroke-miterlimit:10;}
	.st6{fill:#054496;}
	.st7{display:none;fill:#054496;}
	.st8{fill:none;stroke:#000000;stroke-width:25;stroke-miterlimit:10;}
	.st9{display:none;}
</style>
<g id="Ebene_1">
	<g>
		<path class="st6" d="M361.6,48.3h-4.6V24.1h-8.7v-4.2h22.2l-0.3,4.2h-8.6V48.3z"/>
		<path class="st6" d="M393,48.3h-4.5V35.4c0-1.6-0.4-2.7-1.2-3.4c-0.8-0.7-1.9-1.1-3.2-1.1c-0.9,0-1.9,0.2-2.8,0.5
			c-1,0.4-1.9,0.8-2.8,1.4v15.4H374V18.3l4.5-0.2v11.4c1.1-0.9,2.3-1.5,3.5-1.9c1.2-0.4,2.4-0.6,3.7-0.6c2.3,0,4.1,0.6,5.4,1.8
			c1.3,1.2,2,3.1,2,5.7V48.3z"/>
		<path class="st6" d="M417.1,27.2v21.1h-4.5v-2.2c-1.1,0.9-2.3,1.5-3.5,1.9c-1.2,0.4-2.3,0.6-3.5,0.6c-2.2,0-4-0.6-5.3-1.8
			c-1.3-1.2-2-3.1-2-5.7V27.4l4.5-0.2v13c0,1.6,0.4,2.7,1.1,3.4c0.7,0.7,1.8,1.1,3.2,1.1c0.9,0,1.8-0.2,2.8-0.5
			c1-0.4,1.9-0.8,2.7-1.4V27.4L417.1,27.2z"/>
		<path class="st6" d="M434.6,27.2l-0.1,4.3c-0.3-0.1-0.6-0.2-1-0.3c-0.4-0.1-0.8-0.1-1.1-0.1c-1,0-2,0.2-3,0.7
			c-1,0.5-1.8,1.1-2.5,1.8v14.7h-4.5V27.4l4.5-0.2V30c0.9-1,1.9-1.7,2.9-2.3c1.1-0.5,2.2-0.8,3.3-0.8c0.3,0,0.6,0,0.9,0
			C434.2,27,434.4,27.1,434.6,27.2z"/>
		<path class="st6" d="M456.4,26.7l-0.1,3.6h-3.8c0.5,0.5,1,1.1,1.3,1.8c0.3,0.7,0.5,1.4,0.5,2.2c0,2.1-0.7,3.8-2.2,5.1
			c-1.4,1.3-3.4,2.1-5.9,2.2l-2.9,3c0.4-0.1,0.8-0.1,1.3-0.1c0.5,0,1.1-0.1,1.6-0.1s1,0,1.3,0c3,0,5.3,0.5,6.8,1.6
			c1.5,1,2.3,2.6,2.3,4.7c0,2-0.8,3.7-2.5,4.9c-1.7,1.3-4.4,1.9-8.1,1.9c-2.1,0-4-0.2-5.9-0.6c-1.9-0.4-3.4-0.9-4.5-1.6l0.3-3.9
			c0.7,0.4,1.6,0.8,2.7,1.2c1.1,0.4,2.3,0.7,3.6,0.9c1.3,0.2,2.7,0.4,4,0.4c1.6,0,2.9-0.1,3.8-0.4c0.9-0.3,1.5-0.6,1.9-1.1
			c0.4-0.5,0.6-1,0.6-1.6c0-1.1-0.5-1.8-1.4-2.2c-0.9-0.4-2.4-0.6-4.6-0.6c-1.1,0-2.3,0-3.6,0.1c-1.3,0.1-2.4,0.2-3.3,0.4v-3.3
			l3.7-3.7c-2.1-0.3-3.7-1.1-4.9-2.4c-1.2-1.3-1.8-2.9-1.8-4.7c0-1.5,0.4-2.7,1.1-3.8c0.7-1.1,1.7-2,3-2.6s2.9-0.9,4.6-0.9
			c1.2,0,2.3,0.2,3.3,0.5L456.4,26.7z M450.1,34.3c0-1.2-0.4-2.3-1.2-3c-0.8-0.8-2-1.2-3.4-1.2c-1.4,0-2.6,0.4-3.4,1.2
			c-0.8,0.8-1.2,1.8-1.2,3c0,1.2,0.4,2.2,1.2,3c0.8,0.8,1.9,1.2,3.4,1.2c1.4,0,2.6-0.4,3.4-1.2C449.7,36.6,450.1,35.6,450.1,34.3z"
			/>
		<path class="st6" d="M476.6,48.3h-4.3v-1.8c-0.8,0.6-1.8,1.1-3,1.5c-1.2,0.4-2.5,0.6-3.8,0.6c-2.4,0-4.2-0.6-5.4-1.6
			c-1.2-1.1-1.9-2.6-1.9-4.5c0-2.1,0.8-3.7,2.3-4.8c1.5-1.1,3.6-1.6,6.1-1.6c1,0,2,0.1,3.1,0.3c1,0.2,1.9,0.4,2.5,0.7v-2
			c0-1.5-0.5-2.6-1.4-3.2c-0.9-0.7-2.3-1-4-1c-1.2,0-2.5,0.2-3.7,0.5c-1.2,0.3-2.2,0.7-3,1.2l-0.2-4c1-0.5,2.1-0.9,3.3-1.2
			c1.3-0.3,2.6-0.4,4.1-0.4c2.9,0,5.2,0.6,6.8,1.9c1.6,1.2,2.4,3.3,2.4,6V48.3z M472.3,43.9v-4c-0.6-0.3-1.3-0.6-2.1-0.7
			c-0.8-0.2-1.7-0.2-2.5-0.2c-1.5,0-2.7,0.3-3.6,0.8c-0.9,0.5-1.3,1.4-1.3,2.6c0,1.1,0.4,1.9,1.1,2.4c0.7,0.5,1.8,0.7,3,0.7
			c1,0,2-0.2,3-0.5C470.9,44.7,471.7,44.3,472.3,43.9z"/>
		<path class="st6" d="M500.7,27.2v21.1h-4.5v-2.2c-1.1,0.9-2.3,1.5-3.5,1.9c-1.2,0.4-2.3,0.6-3.5,0.6c-2.2,0-4-0.6-5.3-1.8
			c-1.3-1.2-2-3.1-2-5.7V27.4l4.5-0.2v13c0,1.6,0.4,2.7,1.1,3.4c0.7,0.7,1.8,1.1,3.2,1.1c0.9,0,1.8-0.2,2.8-0.5
			c1-0.4,1.9-0.8,2.7-1.4V27.4L500.7,27.2z"/>
		<path class="st6" d="M523.8,38.9h-14.6c0.2,1.2,0.6,2.3,1.2,3.1c0.7,0.9,1.6,1.6,2.7,2c1.1,0.5,2.4,0.7,3.9,0.7
			c1.2,0,2.4-0.2,3.7-0.5c1.3-0.4,2.3-0.8,3.2-1.4l0.2,4c-0.8,0.6-1.9,1.1-3.3,1.4c-1.4,0.3-2.7,0.5-4,0.5c-2.5,0-4.7-0.4-6.5-1.3
			c-1.8-0.9-3.2-2.2-4.2-3.8c-1-1.7-1.5-3.6-1.5-5.9c0-2.1,0.4-4,1.3-5.6c0.9-1.6,2.1-2.8,3.7-3.7c1.5-0.9,3.3-1.3,5.3-1.3
			c1.8,0,3.4,0.4,4.8,1.1c1.4,0.7,2.5,1.8,3.3,3.1c0.8,1.4,1.2,3,1.2,4.8c0,0.4,0,0.8,0,1.4C523.9,37.9,523.9,38.4,523.8,38.9z
			 M514.8,30.3c-1.6,0-2.9,0.5-3.9,1.6c-1.1,1.1-1.7,2.5-1.8,4.3h10.7c0-0.1,0-0.2,0-0.4s0-0.3,0-0.4c0-1.5-0.5-2.7-1.4-3.7
			C517.5,30.7,516.3,30.3,514.8,30.3z"/>
		<path class="st6" d="M540.5,27.2l-0.1,4.3c-0.3-0.1-0.6-0.2-1-0.3c-0.4-0.1-0.8-0.1-1.1-0.1c-1,0-2,0.2-3,0.7
			c-1,0.5-1.8,1.1-2.5,1.8v14.7h-4.5V27.4l4.5-0.2V30c0.9-1,1.9-1.7,2.9-2.3c1.1-0.5,2.2-0.8,3.3-0.8c0.3,0,0.6,0,0.9,0
			C540.1,27,540.4,27.1,540.5,27.2z"/>
		<path class="st6" d="M373.3,60.9L362,73.8l11.8,15.4H368l-9.4-12.2l-3.7,4.2v8h-4.6V60.9h4.6v15.4h0.2c0.6-0.9,1.4-1.8,2.2-2.9
			c0.8-1.1,1.7-2.2,2.6-3.2l8.1-9.3H373.3z"/>
		<path class="st6" d="M394.1,89.3h-4.3v-1.8c-0.8,0.6-1.8,1.1-3,1.5c-1.2,0.4-2.5,0.6-3.8,0.6c-2.4,0-4.2-0.6-5.4-1.6
			c-1.2-1.1-1.9-2.6-1.9-4.5c0-2.1,0.8-3.7,2.3-4.8c1.5-1.1,3.6-1.6,6.1-1.6c1,0,2,0.1,3.1,0.3c1,0.2,1.9,0.4,2.5,0.7v-2
			c0-1.5-0.5-2.6-1.4-3.2c-0.9-0.7-2.3-1-4-1c-1.2,0-2.5,0.2-3.7,0.5c-1.2,0.3-2.2,0.7-3,1.2l-0.2-4c1-0.5,2.1-0.9,3.3-1.2
			c1.3-0.3,2.6-0.4,4.1-0.4c2.9,0,5.2,0.6,6.8,1.9c1.6,1.2,2.4,3.3,2.4,6V89.3z M389.7,84.9v-4c-0.6-0.3-1.3-0.6-2.1-0.7
			c-0.8-0.2-1.7-0.2-2.5-0.2c-1.5,0-2.7,0.3-3.6,0.8c-0.9,0.5-1.3,1.4-1.3,2.6c0,1.1,0.4,1.9,1.1,2.4c0.7,0.5,1.8,0.7,3,0.7
			c1,0,2-0.2,3-0.5C388.3,85.7,389.1,85.3,389.7,84.9z"/>
		<path class="st6" d="M418.3,89.3h-4.5V76.4c0-1.6-0.4-2.7-1.1-3.4c-0.8-0.7-1.8-1.1-3.2-1.1c-0.9,0-1.9,0.2-2.8,0.5
			c-1,0.4-1.9,0.8-2.8,1.4v15.4h-4.5V68.3l4.5-0.2v2.2c1.1-0.9,2.3-1.5,3.5-1.9c1.2-0.4,2.4-0.6,3.6-0.6c2.3,0,4.1,0.6,5.4,1.8
			c1.3,1.2,2,3.1,2,5.7V89.3z"/>
		<path class="st6" d="M435.5,68.2l-0.3,3.9h-6.1v10.2c0,1.2,0.3,2.1,0.9,2.6c0.6,0.5,1.4,0.8,2.5,0.8c0.6,0,1.2-0.1,1.7-0.3
			c0.5-0.2,1-0.4,1.3-0.7l0.2,3.8c-1.1,0.7-2.5,1.1-4.3,1.1c-2.3,0-4.1-0.6-5.2-1.7c-1.1-1.2-1.7-2.8-1.7-5V72.1h-3v-3.9h3v-4.6
			l4.4-1v5.6H435.5z"/>
		<path class="st6" d="M460.3,78.8c0,2.1-0.5,4-1.5,5.6c-1,1.6-2.3,2.9-4,3.8c-1.7,0.9-3.6,1.4-5.7,1.4c-2.1,0-4-0.5-5.7-1.4
			c-1.7-0.9-3-2.2-4-3.8c-1-1.6-1.5-3.5-1.5-5.6c0-2.1,0.5-4,1.5-5.6c1-1.6,2.3-2.9,4-3.8c1.7-0.9,3.6-1.4,5.7-1.4
			c2.1,0,4,0.5,5.7,1.4c1.7,0.9,3,2.2,4,3.8C459.8,74.8,460.3,76.6,460.3,78.8z M455.6,78.8c0-1.4-0.3-2.6-0.9-3.6
			c-0.6-1-1.4-1.8-2.3-2.4c-1-0.6-2.1-0.9-3.3-0.9c-1.2,0-2.3,0.3-3.3,0.9c-1,0.6-1.8,1.4-2.3,2.4c-0.6,1-0.9,2.2-0.9,3.6
			c0,1.4,0.3,2.6,0.9,3.6c0.6,1,1.4,1.8,2.4,2.4c1,0.6,2.1,0.9,3.3,0.9c1.2,0,2.3-0.3,3.3-0.9c1-0.6,1.7-1.4,2.3-2.4
			C455.3,81.3,455.6,80.1,455.6,78.8z"/>
		<path class="st6" d="M483,89.3h-4.5V76.4c0-1.6-0.4-2.7-1.1-3.4c-0.8-0.7-1.8-1.1-3.2-1.1c-0.9,0-1.9,0.2-2.8,0.5
			c-1,0.4-1.9,0.8-2.8,1.4v15.4H464V68.3l4.5-0.2v2.2c1.1-0.9,2.3-1.5,3.5-1.9c1.2-0.4,2.4-0.6,3.6-0.6c2.3,0,4.1,0.6,5.4,1.8
			c1.3,1.2,2,3.1,2,5.7V89.3z"/>
		<path class="st6" d="M505.1,89.3h-4.3v-1.8c-0.8,0.6-1.8,1.1-3,1.5c-1.2,0.4-2.5,0.6-3.8,0.6c-2.4,0-4.2-0.6-5.4-1.6
			c-1.2-1.1-1.9-2.6-1.9-4.5c0-2.1,0.8-3.7,2.3-4.8c1.5-1.1,3.6-1.6,6.1-1.6c1,0,2,0.1,3.1,0.3c1,0.2,1.9,0.4,2.5,0.7v-2
			c0-1.5-0.5-2.6-1.4-3.2c-0.9-0.7-2.3-1-4-1c-1.2,0-2.5,0.2-3.7,0.5c-1.2,0.3-2.2,0.7-3,1.2l-0.2-4c1-0.5,2.1-0.9,3.3-1.2
			c1.3-0.3,2.6-0.4,4.1-0.4c2.9,0,5.2,0.6,6.8,1.9c1.6,1.2,2.4,3.3,2.4,6V89.3z M500.8,84.9v-4c-0.6-0.3-1.3-0.6-2.1-0.7
			c-0.8-0.2-1.7-0.2-2.5-0.2c-1.5,0-2.7,0.3-3.6,0.8c-0.9,0.5-1.3,1.4-1.3,2.6c0,1.1,0.4,1.9,1.1,2.4c0.7,0.5,1.8,0.7,3,0.7
			c1,0,2-0.2,3-0.5C499.4,85.7,500.2,85.3,500.8,84.9z"/>
		<path class="st6" d="M514.9,59v30.3h-4.5V59.2L514.9,59z"/>
		<path class="st6" d="M532.1,68.2l-0.3,3.9h-6.1v10.2c0,1.2,0.3,2.1,0.9,2.6c0.6,0.5,1.4,0.8,2.5,0.8c0.6,0,1.2-0.1,1.7-0.3
			c0.5-0.2,1-0.4,1.3-0.7l0.2,3.8c-1.1,0.7-2.5,1.1-4.3,1.1c-2.3,0-4.1-0.6-5.2-1.7c-1.1-1.2-1.7-2.8-1.7-5V72.1h-3v-3.9h3v-4.6
			l4.4-1v5.6H532.1z"/>
		<path class="st6" d="M554.7,68.2v21.1h-4.5v-2.2c-1.1,0.9-2.3,1.5-3.5,1.9c-1.2,0.4-2.3,0.6-3.5,0.6c-2.2,0-4-0.6-5.3-1.8
			s-2-3.1-2-5.7V68.3l4.5-0.2v13c0,1.6,0.4,2.7,1.1,3.4c0.7,0.7,1.8,1.1,3.2,1.1c0.9,0,1.8-0.2,2.8-0.5c1-0.4,1.9-0.8,2.7-1.4V68.3
			L554.7,68.2z"/>
		<path class="st6" d="M572.2,68.2l-0.1,4.3c-0.3-0.1-0.6-0.2-1-0.3c-0.4-0.1-0.8-0.1-1.1-0.1c-1,0-2,0.2-3,0.7
			c-1,0.5-1.8,1.1-2.5,1.8v14.7h-4.5V68.3l4.5-0.2V71c0.9-1,1.9-1.7,2.9-2.3c1.1-0.5,2.2-0.8,3.3-0.8c0.3,0,0.6,0,0.9,0
			C571.8,68,572.1,68.1,572.2,68.2z"/>
		<path class="st6" d="M594.5,89.3H590V76.4c0-1.6-0.4-2.7-1.1-3.4c-0.8-0.7-1.8-1.1-3.2-1.1c-0.9,0-1.9,0.2-2.8,0.5
			c-1,0.4-1.9,0.8-2.8,1.4v15.4h-4.5V68.3l4.5-0.2v2.2c1.1-0.9,2.3-1.5,3.5-1.9c1.2-0.4,2.4-0.6,3.6-0.6c2.3,0,4.1,0.6,5.4,1.8
			c1.3,1.2,2,3.1,2,5.7V89.3z"/>
		<path class="st6" d="M611.4,59.3l-0.2,3.9c-0.2-0.1-0.5-0.2-0.8-0.2c-0.3,0-0.7,0-1,0c-1.2,0-2.2,0.3-2.9,0.9
			c-0.7,0.6-1.1,1.7-1.1,3.3v1.1h5.5l-0.3,3.9h-5.2v17.2h-4.4V72.1h-3v-3.9h3v-1.2c0-2.7,0.7-4.7,2.2-6c1.4-1.4,3.4-2,5.8-2
			c0.4,0,0.9,0,1.3,0.1C610.6,59.1,611,59.2,611.4,59.3z"/>
		<path class="st6" d="M631.8,79.8h-14.6c0.2,1.2,0.6,2.3,1.2,3.1c0.7,0.9,1.6,1.6,2.7,2c1.1,0.5,2.4,0.7,3.9,0.7
			c1.2,0,2.4-0.2,3.7-0.5c1.3-0.4,2.3-0.8,3.2-1.4l0.2,4c-0.8,0.6-1.9,1.1-3.3,1.4c-1.4,0.3-2.7,0.5-4,0.5c-2.5,0-4.7-0.4-6.5-1.3
			c-1.8-0.9-3.2-2.2-4.2-3.8c-1-1.7-1.5-3.6-1.5-5.9c0-2.1,0.4-4,1.3-5.6c0.9-1.6,2.1-2.8,3.7-3.7c1.5-0.9,3.3-1.3,5.3-1.3
			c1.8,0,3.4,0.4,4.8,1.1c1.4,0.7,2.5,1.8,3.3,3.1c0.8,1.4,1.2,3,1.2,4.8c0,0.4,0,0.8,0,1.4S631.9,79.4,631.8,79.8z M622.8,71.2
			c-1.6,0-2.9,0.5-3.9,1.6s-1.7,2.5-1.8,4.3h10.7c0-0.1,0-0.2,0-0.4s0-0.3,0-0.4c0-1.5-0.5-2.7-1.4-3.7
			C625.5,71.7,624.3,71.2,622.8,71.2z"/>
		<path class="st6" d="M649.9,68.8l-0.7,3.8c-0.7-0.3-1.5-0.6-2.4-0.8c-0.9-0.2-1.9-0.3-3-0.3c-1.2,0-2.1,0.2-2.8,0.6
			c-0.6,0.4-1,1-1,1.7c0,0.5,0.3,1,0.8,1.4c0.5,0.4,1.2,0.7,2,1c0.8,0.3,1.7,0.6,2.6,0.9c0.9,0.3,1.8,0.7,2.6,1.2
			c0.8,0.5,1.5,1.1,2,1.8c0.5,0.8,0.8,1.7,0.8,2.9c0,1.1-0.3,2.2-0.9,3.2c-0.6,1-1.5,1.8-2.7,2.3c-1.3,0.6-2.9,0.9-4.9,0.9
			c-1.3,0-2.6-0.1-3.9-0.4c-1.3-0.3-2.3-0.7-3.1-1.1l0.3-3.9c0.8,0.5,1.8,0.9,3,1.2c1.2,0.4,2.4,0.5,3.6,0.5c2.6,0,4-0.8,4-2.5
			c0-0.6-0.3-1.1-0.8-1.4c-0.5-0.4-1.2-0.7-2-1c-0.8-0.3-1.7-0.6-2.6-0.9c-0.9-0.3-1.8-0.7-2.6-1.2c-0.8-0.5-1.5-1.1-2-1.8
			c-0.5-0.7-0.8-1.7-0.8-2.8c0-1.1,0.3-2.2,1-3.2s1.6-1.7,2.8-2.3c1.2-0.6,2.8-0.8,4.5-0.8c1.2,0,2.4,0.1,3.4,0.2
			S649.2,68.5,649.9,68.8z"/>
		<path class="st6" d="M666.9,68.2l-0.3,3.9h-6.1v10.2c0,1.2,0.3,2.1,0.9,2.6c0.6,0.5,1.4,0.8,2.5,0.8c0.6,0,1.2-0.1,1.7-0.3
			c0.5-0.2,1-0.4,1.3-0.7l0.2,3.8c-1.1,0.7-2.5,1.1-4.3,1.1c-2.3,0-4.1-0.6-5.2-1.7c-1.1-1.2-1.7-2.8-1.7-5V72.1h-3v-3.9h3v-4.6
			l4.4-1v5.6H666.9z"/>
		<path class="st6" d="M374.8,130.2h-5l-3-7.9h-11.3l-3,7.9h-4.7l10.8-28.4h5.4L374.8,130.2z M365.5,118.6l-3.3-8.6
			c-0.2-0.6-0.4-1.2-0.6-1.7c-0.1-0.5-0.3-1-0.4-1.5h-0.2c-0.1,0.5-0.3,1-0.4,1.5c-0.1,0.5-0.3,1.1-0.5,1.7l-3.4,8.6H365.5z"/>
		<path class="st6" d="M390.2,109.1l-0.1,4.3c-0.3-0.1-0.6-0.2-1-0.3c-0.4-0.1-0.8-0.1-1.1-0.1c-1,0-2,0.2-3,0.7
			c-1,0.5-1.8,1.1-2.5,1.8v14.7h-4.5v-20.9l4.5-0.2v2.8c0.9-1,1.9-1.7,2.9-2.3c1.1-0.5,2.2-0.8,3.3-0.8c0.3,0,0.6,0,0.9,0
			C389.8,109,390,109,390.2,109.1z"/>
		<path class="st6" d="M413.7,119.5c0,2.2-0.5,4.1-1.4,5.8c-1,1.7-2.3,3-4.1,3.9c-1.8,0.9-3.8,1.4-6.2,1.4c-1.7,0-3.2-0.2-4.7-0.5
			c-1.5-0.4-2.7-0.8-3.8-1.3v-28.6l4.5-0.2v10.8c0.9-0.6,1.9-1.1,2.8-1.4s2-0.5,3.1-0.5c1.8,0,3.5,0.4,5,1.3
			c1.5,0.8,2.6,2.1,3.5,3.6C413.3,115.3,413.7,117.3,413.7,119.5z M409,119.6c0-1.4-0.3-2.7-0.8-3.7c-0.5-1-1.3-1.8-2.2-2.4
			c-0.9-0.5-2.1-0.8-3.4-0.8c-1.8,0-3.4,0.5-4.7,1.5v11.6c0.5,0.2,1.2,0.4,1.9,0.6s1.5,0.2,2.3,0.2c1.3,0,2.5-0.3,3.5-0.8
			c1-0.6,1.8-1.4,2.4-2.4C408.7,122.4,409,121.1,409,119.6z"/>
		<path class="st6" d="M438.3,119.7c0,2.1-0.5,4-1.5,5.6c-1,1.6-2.3,2.9-4,3.8c-1.7,0.9-3.6,1.4-5.7,1.4c-2.1,0-4-0.5-5.7-1.4
			c-1.7-0.9-3-2.2-4-3.8c-1-1.6-1.5-3.5-1.5-5.6c0-2.1,0.5-4,1.5-5.6c1-1.6,2.3-2.9,4-3.8c1.7-0.9,3.6-1.4,5.7-1.4
			c2.1,0,4,0.5,5.7,1.4c1.7,0.9,3,2.2,4,3.8C437.8,115.7,438.3,117.6,438.3,119.7z M433.6,119.7c0-1.4-0.3-2.6-0.9-3.6
			c-0.6-1-1.4-1.8-2.3-2.4c-1-0.6-2.1-0.9-3.3-0.9c-1.2,0-2.3,0.3-3.3,0.9c-1,0.6-1.8,1.4-2.3,2.4c-0.6,1-0.9,2.2-0.9,3.6
			s0.3,2.6,0.9,3.6c0.6,1,1.4,1.8,2.4,2.4c1,0.6,2.1,0.9,3.3,0.9c1.2,0,2.3-0.3,3.3-0.9c1-0.6,1.7-1.4,2.3-2.4
			C433.4,122.3,433.6,121.1,433.6,119.7z"/>
		<path class="st6" d="M461,130.2h-4.5v-12.9c0-1.6-0.4-2.7-1.1-3.4c-0.8-0.7-1.8-1.1-3.2-1.1c-0.9,0-1.9,0.2-2.8,0.5
			c-1,0.4-1.9,0.8-2.8,1.4v15.4H442v-20.9l4.5-0.2v2.2c1.1-0.9,2.3-1.5,3.5-1.9c1.2-0.4,2.4-0.6,3.6-0.6c2.3,0,4.1,0.6,5.4,1.8
			c1.3,1.2,2,3.1,2,5.7V130.2z"/>
		<path class="st7" d="M476.4,117.7v3.8h-11.2v-3.8H476.4z"/>
		<path class="st6" d="M501.4,111c0,2-0.6,3.7-1.7,5.1c-1.1,1.4-2.6,2.3-4.3,2.8l7.9,11.4h-5.4l-7-10.3h-5.1v10.3H481v-28.4h9.2
			c2.3,0,4.3,0.4,6,1c1.7,0.7,3,1.7,3.9,3.1C500.9,107.3,501.4,109,501.4,111z M496.7,111c0-1.2-0.3-2.2-0.9-3
			c-0.6-0.8-1.4-1.3-2.4-1.7c-1-0.4-2.2-0.6-3.5-0.6h-4.3v10.5h4.3c1.3,0,2.5-0.2,3.5-0.5c1-0.4,1.8-0.9,2.4-1.7
			C496.4,113.2,496.7,112.2,496.7,111z"/>
		<path class="st6" d="M526.8,119.7c0,2.1-0.5,4-1.5,5.6c-1,1.6-2.3,2.9-4,3.8c-1.7,0.9-3.6,1.4-5.7,1.4c-2.1,0-4-0.5-5.7-1.4
			c-1.7-0.9-3-2.2-4-3.8c-1-1.6-1.5-3.5-1.5-5.6c0-2.1,0.5-4,1.5-5.6c1-1.6,2.3-2.9,4-3.8c1.7-0.9,3.6-1.4,5.7-1.4
			c2.1,0,4,0.5,5.7,1.4c1.7,0.9,3,2.2,4,3.8C526.3,115.7,526.8,117.6,526.8,119.7z M522.2,119.7c0-1.4-0.3-2.6-0.9-3.6
			c-0.6-1-1.4-1.8-2.3-2.4c-1-0.6-2.1-0.9-3.3-0.9c-1.2,0-2.3,0.3-3.3,0.9c-1,0.6-1.8,1.4-2.3,2.4c-0.6,1-0.9,2.2-0.9,3.6
			s0.3,2.6,0.9,3.6c0.6,1,1.4,1.8,2.4,2.4c1,0.6,2.1,0.9,3.3,0.9c1.2,0,2.3-0.3,3.3-0.9c1-0.6,1.7-1.4,2.3-2.4
			C521.9,122.3,522.2,121.1,522.2,119.7z"/>
		<path class="st6" d="M549,108.6l-0.1,3.6h-3.8c0.5,0.5,1,1.1,1.3,1.8c0.3,0.7,0.5,1.4,0.5,2.2c0,2.1-0.7,3.8-2.2,5.1
			c-1.4,1.3-3.4,2.1-5.9,2.2l-2.9,3c0.4-0.1,0.8-0.1,1.3-0.1c0.5,0,1.1-0.1,1.6-0.1c0.6,0,1,0,1.3,0c3,0,5.3,0.5,6.8,1.6
			c1.5,1,2.3,2.6,2.3,4.7c0,2-0.8,3.7-2.5,4.9c-1.7,1.3-4.4,1.9-8.1,1.9c-2.1,0-4-0.2-5.9-0.6c-1.9-0.4-3.4-0.9-4.5-1.6l0.3-3.9
			c0.7,0.4,1.6,0.8,2.7,1.2c1.1,0.4,2.3,0.7,3.6,0.9c1.3,0.2,2.7,0.4,4,0.4c1.6,0,2.9-0.1,3.8-0.4c0.9-0.3,1.5-0.6,1.9-1.1
			c0.4-0.5,0.6-1,0.6-1.6c0-1.1-0.5-1.8-1.4-2.2c-0.9-0.4-2.4-0.6-4.6-0.6c-1.1,0-2.3,0-3.6,0.1c-1.3,0.1-2.4,0.2-3.3,0.4v-3.3
			l3.7-3.7c-2.1-0.3-3.7-1.1-4.9-2.4c-1.2-1.3-1.8-2.9-1.8-4.7c0-1.5,0.4-2.7,1.1-3.8c0.7-1.1,1.7-2,3-2.6s2.9-0.9,4.6-0.9
			c1.2,0,2.3,0.2,3.3,0.5L549,108.6z M542.7,116.2c0-1.2-0.4-2.3-1.2-3c-0.8-0.8-2-1.2-3.4-1.2s-2.6,0.4-3.4,1.2
			c-0.8,0.8-1.2,1.8-1.2,3c0,1.2,0.4,2.2,1.2,3c0.8,0.8,1.9,1.2,3.4,1.2s2.6-0.4,3.4-1.2C542.3,118.5,542.7,117.5,542.7,116.2z"/>
		<path class="st6" d="M570.9,108.6l-0.1,3.6H567c0.5,0.5,1,1.1,1.3,1.8c0.3,0.7,0.5,1.4,0.5,2.2c0,2.1-0.7,3.8-2.2,5.1
			c-1.4,1.3-3.4,2.1-5.9,2.2l-2.9,3c0.4-0.1,0.8-0.1,1.3-0.1c0.5,0,1.1-0.1,1.6-0.1c0.6,0,1,0,1.3,0c3,0,5.3,0.5,6.8,1.6
			c1.5,1,2.3,2.6,2.3,4.7c0,2-0.8,3.7-2.5,4.9c-1.7,1.3-4.4,1.9-8.1,1.9c-2.1,0-4-0.2-5.9-0.6c-1.9-0.4-3.4-0.9-4.5-1.6l0.3-3.9
			c0.7,0.4,1.6,0.8,2.7,1.2c1.1,0.4,2.3,0.7,3.6,0.9c1.3,0.2,2.7,0.4,4,0.4c1.6,0,2.9-0.1,3.8-0.4c0.9-0.3,1.5-0.6,1.9-1.1
			c0.4-0.5,0.6-1,0.6-1.6c0-1.1-0.5-1.8-1.4-2.2c-0.9-0.4-2.4-0.6-4.6-0.6c-1.1,0-2.3,0-3.6,0.1c-1.3,0.1-2.4,0.2-3.3,0.4v-3.3
			l3.7-3.7c-2.1-0.3-3.7-1.1-4.9-2.4s-1.8-2.9-1.8-4.7c0-1.5,0.4-2.7,1.1-3.8c0.7-1.1,1.7-2,3-2.6s2.9-0.9,4.6-0.9
			c1.2,0,2.3,0.2,3.3,0.5L570.9,108.6z M564.6,116.2c0-1.2-0.4-2.3-1.2-3c-0.8-0.8-2-1.2-3.4-1.2c-1.4,0-2.6,0.4-3.4,1.2
			c-0.8,0.8-1.2,1.8-1.2,3c0,1.2,0.4,2.2,1.2,3c0.8,0.8,1.9,1.2,3.4,1.2c1.4,0,2.6-0.4,3.4-1.2C564.2,118.5,564.6,117.5,564.6,116.2
			z"/>
		<path class="st6" d="M605.7,109.2l-6.7,21h-4.8l-3.4-9.7c-0.4-1.2-0.7-2.3-1-3.2c-0.3-0.9-0.5-1.6-0.7-2.3H589
			c-0.2,0.7-0.4,1.5-0.7,2.3c-0.3,0.9-0.6,1.9-1,3.2l-3.4,9.7h-4.8l-6.6-20.9l4.5-0.2l3.7,11.9c0.2,0.7,0.4,1.4,0.6,2.2
			c0.2,0.8,0.3,1.6,0.4,2.3h0.2c0.1-0.7,0.3-1.5,0.5-2.3c0.2-0.8,0.4-1.6,0.7-2.2l3.6-10.3h4.7l3.6,10.3c0.2,0.7,0.4,1.4,0.7,2.2
			c0.2,0.8,0.4,1.6,0.5,2.3h0.2c0.1-0.7,0.3-1.5,0.5-2.3c0.2-0.8,0.4-1.6,0.6-2.2l3.6-11.8H605.7z"/>
		<path class="st6" d="M611.4,100c0.7,0,1.3,0.2,1.8,0.7c0.5,0.5,0.7,1.1,0.7,1.8c0,0.8-0.2,1.4-0.7,1.9c-0.5,0.5-1.1,0.7-1.8,0.7
			c-0.8,0-1.4-0.2-1.9-0.7c-0.5-0.5-0.8-1.1-0.8-1.9c0-0.7,0.3-1.3,0.8-1.8C610,100.3,610.7,100,611.4,100z M613.6,109.1v21.1h-4.5
			v-20.9L613.6,109.1z"/>
		<path class="st6" d="M623.4,99.9v30.3h-4.5v-30.1L623.4,99.9z"/>
		<path class="st6" d="M360.6,150.2l-0.2,1.8h-7v13.5c0,1.5,0.4,2.5,1.1,3.2c0.7,0.7,1.7,1,2.9,1c0.7,0,1.4-0.1,2-0.3
			c0.6-0.2,1.1-0.5,1.5-0.8l0.1,1.9c-1,0.7-2.2,1.1-3.8,1.1c-1.8,0-3.3-0.5-4.3-1.4c-1-1-1.5-2.4-1.5-4.3v-13.8h-3.2v-1.8h3.2v-4.9
			l2-0.6v5.5H360.6z"/>
		<path class="st6" d="M382,150.2l-9.6,9.6l10.6,11.4h-2.6l-9.5-10l-3.7,3.8v6.2h-2v-30.1l2-0.2v21.8h0.1c0.4-0.4,0.8-0.9,1.3-1.5
			c0.5-0.6,1-1.1,1.6-1.7l9.4-9.4L382,150.2z"/>
		<path class="st6" d="M397.2,150.2l-0.2,1.8h-7v13.5c0,1.5,0.4,2.5,1.1,3.2c0.7,0.7,1.7,1,2.9,1c0.7,0,1.4-0.1,2-0.3
			c0.6-0.2,1.1-0.5,1.5-0.8l0.1,1.9c-1,0.7-2.2,1.1-3.8,1.1c-1.8,0-3.3-0.5-4.3-1.4c-1-1-1.5-2.4-1.5-4.3v-13.8h-3.2v-1.8h3.2v-4.9
			l2-0.6v5.5H397.2z"/>
		<path class="st6" d="M420.6,169.4l-0.2,1.8h-18.8v-1.9c2.4-1.9,4.5-3.7,6.5-5.3c1.9-1.6,3.6-3.2,4.9-4.6c1.4-1.4,2.4-2.9,3.1-4.3
			c0.7-1.4,1.1-2.8,1.1-4.2c0-1.9-0.6-3.5-1.9-4.7c-1.3-1.2-3.2-1.8-5.6-1.8c-1.5,0-2.9,0.2-4.2,0.5c-1.3,0.4-2.4,0.8-3.1,1.3
			l-0.1-2c0.8-0.5,1.9-1,3.3-1.3s2.8-0.5,4.3-0.5c3.1,0,5.4,0.7,7.1,2.2c1.7,1.5,2.5,3.5,2.5,6c0,2-0.6,4-1.9,5.9
			c-1.3,1.9-3,3.9-5.3,6c-2.2,2.1-4.9,4.3-7.9,6.6H420.6z"/>
		<path class="st6" d="M443.7,157c0,3.1-0.4,5.8-1.1,7.9c-0.7,2.2-1.8,3.8-3.2,4.9c-1.4,1.1-3.1,1.6-5.2,1.6c-2.1,0-3.8-0.6-5.2-1.6
			c-1.4-1.1-2.5-2.7-3.2-4.9c-0.7-2.1-1.1-4.8-1.1-7.9c0-3.2,0.4-5.8,1.1-7.9c0.7-2.1,1.8-3.8,3.2-4.8c1.4-1.1,3.1-1.6,5.2-1.6
			c2.1,0,3.8,0.5,5.2,1.6c1.4,1.1,2.4,2.7,3.2,4.8C443.4,151.2,443.7,153.8,443.7,157z M441.6,157c0-4-0.6-7.1-1.8-9.3
			c-1.2-2.2-3.1-3.3-5.5-3.3c-2.5,0-4.3,1.1-5.5,3.3c-1.2,2.2-1.8,5.3-1.8,9.3s0.6,7.1,1.8,9.3c1.2,2.2,3.1,3.3,5.5,3.3
			c2.5,0,4.3-1.1,5.5-3.3C441,164.1,441.6,161,441.6,157z"/>
		<path class="st6" d="M466.7,169.4l-0.2,1.8h-18.8v-1.9c2.4-1.9,4.5-3.7,6.5-5.3c1.9-1.6,3.6-3.2,4.9-4.6c1.4-1.4,2.4-2.9,3.1-4.3
			c0.7-1.4,1.1-2.8,1.1-4.2c0-1.9-0.6-3.5-1.9-4.7c-1.3-1.2-3.2-1.8-5.6-1.8c-1.5,0-2.9,0.2-4.2,0.5c-1.3,0.4-2.4,0.8-3.1,1.3
			l-0.1-2c0.8-0.5,1.9-1,3.3-1.3s2.8-0.5,4.3-0.5c3.1,0,5.4,0.7,7.1,2.2c1.7,1.5,2.5,3.5,2.5,6c0,2-0.6,4-1.9,5.9
			c-1.3,1.9-3,3.9-5.3,6c-2.2,2.1-4.9,4.3-7.9,6.6H466.7z"/>
		<path class="st6" d="M489.5,162.4l-0.2,1.8h-4.1v7h-2v-7h-14.2v-2.1l10.8-19.5l2.1,0.2l-10.9,19.6h12.2v-9l2-0.1v9.1H489.5z"/>
		<path class="st6" d="M493.4,168.3c0.4,0,0.8,0.2,1.1,0.5s0.5,0.7,0.5,1.1c0,0.4-0.2,0.8-0.5,1.1s-0.7,0.5-1.1,0.5
			c-0.4,0-0.8-0.2-1.1-0.5s-0.5-0.7-0.5-1.1c0-0.4,0.2-0.8,0.5-1.1S493,168.3,493.4,168.3z"/>
		<path class="st6" d="M514.4,151.8l-0.6,1.9c-0.7-0.6-1.6-1-2.7-1.4c-1.1-0.4-2.2-0.5-3.2-0.5c-1.7,0-3.2,0.4-4.5,1.1
			c-1.3,0.7-2.4,1.8-3.1,3.2c-0.7,1.4-1.1,2.9-1.1,4.7c0,1.7,0.4,3.2,1.1,4.6c0.8,1.3,1.8,2.4,3.2,3.1c1.4,0.8,2.9,1.1,4.6,1.1
			c1.3,0,2.6-0.2,3.8-0.6c1.2-0.4,2.2-1,3.1-1.7l0.1,2.1c-0.8,0.6-1.8,1.2-3.1,1.6c-1.3,0.4-2.6,0.6-4,0.6c-2.1,0-3.9-0.4-5.6-1.3
			c-1.6-0.9-2.9-2.1-3.9-3.7c-1-1.6-1.5-3.5-1.5-5.7c0-2.1,0.5-4,1.4-5.6c1-1.6,2.3-2.9,3.9-3.8c1.7-0.9,3.5-1.4,5.4-1.4
			c1.4,0,2.6,0.2,3.8,0.5C512.8,150.8,513.7,151.2,514.4,151.8z"/>
		<path class="st6" d="M537.2,171.2h-2v-13.4c0-2-0.5-3.6-1.5-4.5c-1-1-2.4-1.5-4.3-1.5c-1.3,0-2.6,0.3-3.9,0.8
			c-1.3,0.5-2.6,1.2-3.8,2.1v16.5h-2v-30.1l2-0.2v11.9c1.4-1,2.7-1.7,4.1-2.2c1.4-0.5,2.7-0.7,4-0.7c2.4,0,4.2,0.6,5.5,1.8
			s2,3.1,2,5.6V171.2z"/>
		<path class="st6" d="M476.1,121.5h-10.3V118h10.3V121.5z"/>
	</g>
	<g>
		<g>
			<g>
				<path class="st6" d="M248.5,59.8h-19.9V85c0,3.4,0.8,5.9,2.5,7.3c1.7,1.4,4.2,2.1,7.7,2.1c1.8,0,3.6-0.3,5.3-1
					c1.8-0.7,3.3-1.4,4.5-2.2l0,23.1c0,0-9.8,3.5-16.6,3.5c-10.7,0-18.4-2.6-23.1-7.8c-4.8-5.2-7.1-12.6-7.1-22.1V59.8h-10.5V38.1
					h10.5V16.2l26.9,0v21.8h19.9V59.8z"/>
			</g>
		</g>
		<g>
			<g>
				<path class="st6" d="M63.5,115.1H43.5v25.2c0,3.4,0.8,5.9,2.5,7.3c1.7,1.4,4.2,2.1,7.7,2.1c1.8,0,3.6-0.3,5.3-1
					c1.8-0.7,3.3-1.4,4.5-2.2l0,23.1c0,0-9.8,3.5-16.6,3.5c-10.7,0-18.4-2.6-23.1-7.8c-4.8-5.2-7.1-12.6-7.1-22.1v-28.1H6.1V93.4
					h10.5V71.6l26.9,0v21.8h19.9L63.5,115.1z"/>
			</g>
		</g>
		<path class="st6" d="M297.5,100.7c-7.1,13.1-17.1,24.2-28.9,31.9c-28.2,18.4-67.3,19-95.2,1.6c-14.2-8.9-23.3-21-28.8-30.7
			c8.5-7,15.2-16,18.8-26c4.3-12.1,4.6-28.1,4.7-36.6c0-1.2,0-2.2,0-2.8l-25,0c0,0.5,0,1.4,0,2.4c-0.1,6.6-0.4,20.5-3.3,28.8
			c-4.1,11.7-17.3,21.9-30.5,23.8c-0.1,0-0.2,0-0.3,0V6.1H82.2v163.5h26.8v-51.5c1.2-0.1,2.5-0.2,3.7-0.4c3.4-0.5,6.7-1.2,10-2.3
			c9.3,16.6,22.1,30.3,37.4,39.9c17.7,11.1,38.4,16.6,59.2,16.6c22,0,44.1-6.2,62.9-18.4c15.3-10,28.2-24.1,37.2-40.9L297.5,100.7z"
			/>
	</g>
</g>
<g id="Ebene_2" class="st9">
</g>
</svg>
