<svg xmlns="http://www.w3.org/2000/svg" xmlns:xlink="http://www.w3.org/1999/xlink" viewBox="0 0 451.29 177.27"><defs><style>.cls-1{fill:url(#Neues_Verlaufsfeld_3);}.cls-2{fill:url(#Neues_Verlaufsfeld_2);}.cls-3{fill:#1d1d1b;}.cls-4{fill:#fff;}.cls-5{fill:#0070b2;}.cls-6{fill:#ec6608;}</style><radialGradient id="Neues_Verlaufsfeld_3" cx="465.93" cy="70.85" r="459.92" gradientUnits="userSpaceOnUse"><stop offset="0" stop-color="#0095d4"/><stop offset="0" stop-color="#0095d4"/><stop offset="0.98" stop-color="#0062a2"/></radialGradient><radialGradient id="Neues_Verlaufsfeld_2" cx="119.15" cy="135.26" r="151.44" gradientUnits="userSpaceOnUse"><stop offset="0" stop-color="#ef7d00"/><stop offset="0.03" stop-color="#ef7d00"/><stop offset="0.99" stop-color="#e63312"/></radialGradient></defs><g id="Ebene_2" data-name="Ebene 2"><path class="cls-1" d="M181,217.36a61.26,61.26,0,0,1-7.81-29.49c0-56,82-101.49,182.8-101.49,66.7,0,128.09,20.13,160.22,52.52l8.92,9-10.74-6.7c-36-22.4-87.7-35.25-141.95-35.25-104.27,0-189.1,46.5-189.1,103.65a56.5,56.5,0,0,0,.43,6.89l.92,7.66Z" transform="translate(-77.29 -86.38)"/><path class="cls-2" d="M133.3,157.22A17.39,17.39,0,1,0,109.8,150,17.38,17.38,0,0,0,133.3,157.22Zm100.34-62c-12.14,2.54-29,8.54-47.19,22.56-25.9,20-35,37.9-49.68,45.68C127,168.6,105.37,168.37,94.5,147c-12.86-25.28,4-55.59,4-55.59s-35.75,25.83-14.32,75.27c13.37,30.85,51.25,64.32,98.48,78.11a53.31,53.31,0,0,1-21.27-21.36C141.4,185.72,173.63,129.27,233.64,95.21Z" transform="translate(-77.29 -86.38)"/></g><g id="Ebene_1" data-name="Ebene 1"><path class="cls-3" d="M246.35,180q0,5.7-8.2,5.71a19,19,0,0,1-5.18-.68l.71-3.25a13.87,13.87,0,0,0,4.47.82,8.81,8.81,0,0,0,3.36-.46,1.54,1.54,0,0,0,1-1.51,2.28,2.28,0,0,0-1-1.87,15.77,15.77,0,0,0-3.37-1.75,10.91,10.91,0,0,1-3.43-2.16,5.08,5.08,0,0,1-1.41-3.64,4.65,4.65,0,0,1,1.86-3.92,8.65,8.65,0,0,1,5.35-1.42,20.43,20.43,0,0,1,4.8.48l-.54,3.24a12.57,12.57,0,0,0-4.26-.71c-2.3,0-3.45.61-3.45,1.84a1.93,1.93,0,0,0,.8,1.59A16.17,16.17,0,0,0,241,173.8,11.38,11.38,0,0,1,244.7,176,5.38,5.38,0,0,1,246.35,180Z" transform="translate(-77.29 -86.38)"/><path class="cls-3" d="M261.81,176.78c0,.49,0,1.14-.09,1.94l-9.4.16a4.29,4.29,0,0,0,1.42,2.74,4.57,4.57,0,0,0,3.18,1.1,18.1,18.1,0,0,0,4.66-.66l-.3,2.83a14.65,14.65,0,0,1-5,.73,7.58,7.58,0,0,1-5.77-2.11,7.14,7.14,0,0,1-2-5.1,8.15,8.15,0,0,1,1.91-5.39,6.51,6.51,0,0,1,5.29-2.28,5.91,5.91,0,0,1,4.6,1.67A6.32,6.32,0,0,1,261.81,176.78Zm-3.42-.13q0-3.36-2.86-3.36t-3.24,3.47Z" transform="translate(-77.29 -86.38)"/><path class="cls-3" d="M277.12,176.78c0,.49,0,1.14-.09,1.94l-9.4.16a4.29,4.29,0,0,0,1.42,2.74,4.57,4.57,0,0,0,3.18,1.1,18.1,18.1,0,0,0,4.66-.66l-.3,2.83a14.65,14.65,0,0,1-5,.73,7.58,7.58,0,0,1-5.77-2.11,7.14,7.14,0,0,1-2-5.1,8.15,8.15,0,0,1,1.91-5.39,6.51,6.51,0,0,1,5.29-2.28,5.91,5.91,0,0,1,4.6,1.67A6.32,6.32,0,0,1,277.12,176.78Zm-3.42-.13q0-3.36-2.86-3.36t-3.24,3.47Z" transform="translate(-77.29 -86.38)"/><path class="cls-3" d="M284.11,185.2h-4c.14-3.34.22-6.95.22-10.85a87.82,87.82,0,0,0-.46-9.67l4.22-.24q-.23,4.14-.22,9.91C283.89,178.27,284,181.88,284.11,185.2Z" transform="translate(-77.29 -86.38)"/><path class="cls-3" d="M299.36,185.18l-3.44.12a3.06,3.06,0,0,1-.23-1.11h-.2a6.41,6.41,0,0,1-4.33,1.37,4.51,4.51,0,0,1-3-1,3.35,3.35,0,0,1-1.2-2.69,4.38,4.38,0,0,1,1.87-3.64q1.88-1.41,6.58-1.5a4.46,4.46,0,0,0,0-.5,2.37,2.37,0,0,0-.76-2.08,5.52,5.52,0,0,0-2.79-.5,16.33,16.33,0,0,0-4.3.58l.32-2.68a17.77,17.77,0,0,1,5.6-.69,6.56,6.56,0,0,1,4.08,1.11c1,.74,1.44,2,1.44,3.88,0,.41,0,1.16-.05,2.24s-.05,1.8-.05,2.16A21.63,21.63,0,0,0,299.36,185.18Zm-7.1-18.24a2.14,2.14,0,0,1-.58,1.48,2.05,2.05,0,0,1-1.61.64,1.72,1.72,0,0,1-1.35-.55,1.91,1.91,0,0,1-.49-1.32,2.09,2.09,0,0,1,.58-1.47,2.13,2.13,0,0,1,1.62-.62,1.71,1.71,0,0,1,1.35.54A1.88,1.88,0,0,1,292.26,166.94Zm3.21,15.21c-.06-1.31-.09-2.45-.09-3.4q-5,0-5,2.52,0,1.74,2.19,1.74A4.71,4.71,0,0,0,295.47,182.15ZM298,166.94a2.09,2.09,0,0,1-.58,1.48,2,2,0,0,1-1.61.64,1.74,1.74,0,0,1-1.36-.55,1.91,1.91,0,0,1-.49-1.32,2,2,0,0,1,.59-1.46,2.12,2.12,0,0,1,1.63-.63,1.68,1.68,0,0,1,1.34.54A1.88,1.88,0,0,1,298,166.94Z" transform="translate(-77.29 -86.38)"/><path class="cls-3" d="M315.36,185.2h-3.88q.31-3.69.32-7.47a5.1,5.1,0,0,0-.68-3.11,2.51,2.51,0,0,0-2.06-.82,5.14,5.14,0,0,0-3.16,1.14q.08,5.69.08,10.26h-3.93q.26-4.57.26-7.18a29.5,29.5,0,0,0-.71-6.58l3.73-.41.25,1.54h.24a6.86,6.86,0,0,1,4.59-1.72,5.71,5.71,0,0,1,3.6,1.06q1.35,1.07,1.35,3.9c0,.29,0,.66,0,1.14s0,1,0,1.45Q315.29,180.37,315.36,185.2Z" transform="translate(-77.29 -86.38)"/><path class="cls-3" d="M332,185.18l-3.46.12a5.22,5.22,0,0,1-.1-1.06h-.22a6.07,6.07,0,0,1-4.1,1.38,5.41,5.41,0,0,1-4.45-2,7.37,7.37,0,0,1-1.65-4.81,9,9,0,0,1,1.79-5.57,5.91,5.91,0,0,1,5-2.37,5.2,5.2,0,0,1,3.11.77h.21c0-2.3-.12-4.61-.34-6.93l4.13-.12q-.23,3.41-.23,9.78C331.68,178.65,331.79,182.27,332,185.18Zm-3.66-3.31c0-3.1-.08-5.67-.22-7.7a4.1,4.1,0,0,0-2.41-.7,3.17,3.17,0,0,0-2.86,1.42,6.26,6.26,0,0,0-.94,3.51,5.47,5.47,0,0,0,.91,3.17,2.87,2.87,0,0,0,2.51,1.34A3.75,3.75,0,0,0,328.34,181.87Z" transform="translate(-77.29 -86.38)"/><path class="cls-3" d="M339.22,185.2H335.3c.13-2,.2-4.33.2-6.93a41.1,41.1,0,0,0-.49-6.8l4.2-.43q-.19,2.84-.19,7.23Q339,182,339.22,185.2Zm.67-18.27a2.48,2.48,0,0,1-.67,1.73,2.44,2.44,0,0,1-1.89.75,2.06,2.06,0,0,1-1.6-.64,2.23,2.23,0,0,1-.58-1.55,2.42,2.42,0,0,1,2.59-2.45,2,2,0,0,1,1.59.63A2.19,2.19,0,0,1,339.89,166.93Z" transform="translate(-77.29 -86.38)"/><path class="cls-3" d="M352.45,181.22q0,4.36-6.48,4.37a14.9,14.9,0,0,1-4.13-.51l.49-2.87a10.64,10.64,0,0,0,3.64.65,6.81,6.81,0,0,0,2.43-.29,1,1,0,0,0,.68-1c0-.71-.82-1.38-2.46-2a11.72,11.72,0,0,1-3.12-1.67,3.54,3.54,0,0,1-1.34-2.79A3.84,3.84,0,0,1,343.6,172a6.52,6.52,0,0,1,4.21-1.18,14.4,14.4,0,0,1,4.05.45l-.49,2.89a9.7,9.7,0,0,0-3.56-.64q-2.34,0-2.34,1.2a1.18,1.18,0,0,0,.5,1,9,9,0,0,0,2,.94,10.77,10.77,0,0,1,3.08,1.59A3.78,3.78,0,0,1,352.45,181.22Z" transform="translate(-77.29 -86.38)"/><path class="cls-3" d="M366.11,182.13l-.25,2.79a7.76,7.76,0,0,1-3.6.7,7.66,7.66,0,0,1-5.79-2.1,7,7,0,0,1-2-5.05,7.62,7.62,0,0,1,2.11-5.35,7.52,7.52,0,0,1,5.8-2.28,11.12,11.12,0,0,1,3.19.41l-.49,3a7.84,7.84,0,0,0-3-.55,3.42,3.42,0,0,0-2.79,1.25,4.68,4.68,0,0,0-1,3.07,4.9,4.9,0,0,0,1.21,3.36,4.35,4.35,0,0,0,3.43,1.37A11.58,11.58,0,0,0,366.11,182.13Z" transform="translate(-77.29 -86.38)"/><path class="cls-3" d="M381.56,185.2h-3.88c.22-2.46.32-4.86.32-7.18a6,6,0,0,0-.65-3.41,2.63,2.63,0,0,0-2.16-.81,5.42,5.42,0,0,0-3.13,1.07c0,4.13.05,7.58.15,10.33h-3.88c.1-3,.16-6.63.16-10.85a85.83,85.83,0,0,0-.45-9.67l4.12-.24c-.14,3.14-.21,5.86-.21,8.18h.18a6.35,6.35,0,0,1,4.41-1.77,5.77,5.77,0,0,1,3.69,1.07c.89.71,1.33,2,1.33,3.75,0,.18,0,.56,0,1.13s0,.95,0,1.13C381.49,179.56,381.52,182,381.56,185.2Z" transform="translate(-77.29 -86.38)"/><path class="cls-3" d="M397.52,176.78c0,.49,0,1.14-.09,1.94l-9.4.16a4.29,4.29,0,0,0,1.42,2.74,4.54,4.54,0,0,0,3.18,1.1,18,18,0,0,0,4.65-.66l-.29,2.83a14.69,14.69,0,0,1-5,.73,7.56,7.56,0,0,1-5.77-2.11,7.14,7.14,0,0,1-2-5.1,8.2,8.2,0,0,1,1.9-5.39,6.53,6.53,0,0,1,5.3-2.28,5.88,5.88,0,0,1,4.59,1.67A6.28,6.28,0,0,1,397.52,176.78Zm-3.42-.13q0-3.36-2.86-3.36T388,176.76Z" transform="translate(-77.29 -86.38)"/><path class="cls-3" d="M410.07,181.22q0,4.36-6.48,4.37a14.9,14.9,0,0,1-4.13-.51l.49-2.87a10.64,10.64,0,0,0,3.64.65,6.77,6.77,0,0,0,2.43-.29,1,1,0,0,0,.68-1c0-.71-.82-1.38-2.46-2a11.72,11.72,0,0,1-3.12-1.67,3.54,3.54,0,0,1-1.34-2.79,3.84,3.84,0,0,1,1.44-3.12,6.52,6.52,0,0,1,4.21-1.18,14.4,14.4,0,0,1,4.05.45l-.49,2.89a9.7,9.7,0,0,0-3.56-.64q-2.34,0-2.34,1.2a1.18,1.18,0,0,0,.5,1,9.23,9.23,0,0,0,2,.94,10.77,10.77,0,0,1,3.08,1.59A3.78,3.78,0,0,1,410.07,181.22Z" transform="translate(-77.29 -86.38)"/><path class="cls-3" d="M433,166.2l-.1,3.13c-1.95-.14-3.78-.21-5.5-.21q0,2.74,0,6.14c0,3.5.05,6.82.16,9.94h-4.09c.13-3.09.19-6.41.19-9.94q0-3.33-.06-6.14c-1.37,0-3.25.07-5.65.23l.12-3.15Z" transform="translate(-77.29 -86.38)"/><path class="cls-3" d="M448,185.18l-3.42.12a4.84,4.84,0,0,1-.23-1.25h-.23a6.83,6.83,0,0,1-4.47,1.57,4.85,4.85,0,0,1-3.63-1.26q-1.22-1.26-1.22-5c0-.3,0-.73,0-1.27s0-1,0-1.43c0-1.08-.09-2.8-.28-5.17l4.07-.14c-.15,1.86-.23,3.63-.23,5.31a14.33,14.33,0,0,0,.53,4.81,2.06,2.06,0,0,0,2.1,1.24,5.25,5.25,0,0,0,2.94-.81c0-5.12-.05-8.59-.17-10.42l3.94-.13c-.1,1.83-.15,4.22-.15,7.15A60.16,60.16,0,0,0,448,185.18Z" transform="translate(-77.29 -86.38)"/><path class="cls-3" d="M460.73,171.33l-.85,3.42a5.82,5.82,0,0,0-2.19-.44,2.73,2.73,0,0,0-2.83,1.93q0,5.82.09,9h-3.88c.16-2.93.25-5.32.25-7.18a29,29,0,0,0-.73-6.58l3.72-.41c.16,1.07.25,1.7.25,1.88h.23a4.1,4.1,0,0,1,3.58-2.06A7,7,0,0,1,460.73,171.33Z" transform="translate(-77.29 -86.38)"/><path class="cls-3" d="M475.81,185.2h-3.89c.22-2.46.32-4.95.32-7.47a5.11,5.11,0,0,0-.67-3.11,2.53,2.53,0,0,0-2.07-.82,5.09,5.09,0,0,0-3.15,1.14q.07,5.69.07,10.26H462.5q.25-4.57.26-7.18a28.91,28.91,0,0,0-.72-6.58l3.74-.41.25,1.54h.23a6.88,6.88,0,0,1,4.6-1.72,5.71,5.71,0,0,1,3.6,1.06q1.35,1.07,1.35,3.9c0,.29,0,.66,0,1.14s0,1,0,1.45Q475.73,180.37,475.81,185.2Z" transform="translate(-77.29 -86.38)"/><path class="cls-3" d="M488.21,164.49l-.52,2.6a7,7,0,0,0-1.71-.21,1.45,1.45,0,0,0-1.45,1,11.6,11.6,0,0,0-.39,3.73c.87,0,2.06,0,3.57-.11l-.11,2.9c-1.52-.06-2.67-.09-3.46-.09q0,5.5.22,10.92h-3.85q.21-5.34.21-10.92-.86,0-2.55.09l.12-2.89c1,.07,1.84.1,2.43.1q0-7.34,4.94-7.34A11.23,11.23,0,0,1,488.21,164.49Z" transform="translate(-77.29 -86.38)"/><path class="cls-3" d="M502.6,176.78c0,.49,0,1.14-.09,1.94l-9.39.16a4.23,4.23,0,0,0,1.41,2.74,4.57,4.57,0,0,0,3.18,1.1,18.1,18.1,0,0,0,4.66-.66l-.29,2.83a14.73,14.73,0,0,1-5,.73,7.58,7.58,0,0,1-5.78-2.11,7.13,7.13,0,0,1-2-5.1,8.14,8.14,0,0,1,1.9-5.39,6.51,6.51,0,0,1,5.29-2.28,5.9,5.9,0,0,1,4.6,1.67A6.32,6.32,0,0,1,502.6,176.78Zm-3.41-.13c0-2.24-1-3.36-2.86-3.36s-2.9,1.16-3.24,3.47Z" transform="translate(-77.29 -86.38)"/><path class="cls-3" d="M515.15,181.22q0,4.36-6.48,4.37a15,15,0,0,1-4.13-.51l.5-2.87a10.63,10.63,0,0,0,3.63.65,6.77,6.77,0,0,0,2.43-.29,1,1,0,0,0,.68-1c0-.71-.82-1.38-2.45-2a11.72,11.72,0,0,1-3.12-1.67,3.51,3.51,0,0,1-1.34-2.79,3.84,3.84,0,0,1,1.44-3.12,6.47,6.47,0,0,1,4.2-1.18,14.48,14.48,0,0,1,4.06.45l-.5,2.89a9.66,9.66,0,0,0-3.56-.64c-1.55,0-2.33.4-2.33,1.2a1.17,1.17,0,0,0,.49,1,9.23,9.23,0,0,0,2,.94,10.64,10.64,0,0,1,3.08,1.59A3.75,3.75,0,0,1,515.15,181.22Z" transform="translate(-77.29 -86.38)"/><path class="cls-3" d="M526.42,182.47l-.25,2.6a6.54,6.54,0,0,1-2.56.44,4.64,4.64,0,0,1-3.57-1.29q-1.18-1.28-1.19-4.95c0-1.46,0-3.13,0-5-.5,0-1.17,0-2,.09l.1-2.88c.75.06,1.45.09,2.09.09,0-.51.05-1.87.12-4.07l3.46-.42c-.15,1.93-.22,3.43-.22,4.49.81,0,2,0,3.66-.11l-.11,2.9c-1.49-.06-2.69-.09-3.61-.09,0,1.3,0,2.65,0,4.07a7.69,7.69,0,0,0,.53,3.49,2,2,0,0,0,1.85.88A6.44,6.44,0,0,0,526.42,182.47Z" transform="translate(-77.29 -86.38)"/><path class="cls-3" d="M235.36,247.56A4.31,4.31,0,0,1,239,245.7a4.15,4.15,0,0,1,3.5,1.73,6.56,6.56,0,0,1,1.28,4,7.5,7.5,0,0,1-1.34,4.51,4.34,4.34,0,0,1-3.72,1.86,4,4,0,0,1-3.46-1.77A7.12,7.12,0,0,1,234,251.8,6.92,6.92,0,0,1,235.36,247.56Zm.74,8a3.38,3.38,0,0,0,2.85,1.55,3.18,3.18,0,0,0,2.85-1.56,7,7,0,0,0,1-3.85,6.32,6.32,0,0,0-1.07-3.57,3.36,3.36,0,0,0-2.95-1.61,3.11,3.11,0,0,0-2.81,1.61,6.53,6.53,0,0,0-1,3.54A6.38,6.38,0,0,0,236.1,255.52Z" transform="translate(-77.29 -86.38)"/><path class="cls-3" d="M250.14,247l-3.3,2.1-.43-.62,4.2-3.05h.56c-.07,2-.11,4.3-.11,7,0,1.92,0,3.68.11,5.27h-1.09c.1-1.18.16-2.94.16-5.27C250.24,249.29,250.21,247.48,250.14,247Z" transform="translate(-77.29 -86.38)"/><path class="cls-3" d="M256,255.74a1.16,1.16,0,0,1,.86-.34.88.88,0,0,1,.75.29,1.28,1.28,0,0,1,.21.77,1.31,1.31,0,0,1-.33.89,1.12,1.12,0,0,1-.86.38.85.85,0,0,1-.73-.32,1.4,1.4,0,0,1,.1-1.67Z" transform="translate(-77.29 -86.38)"/><path class="cls-3" d="M270.79,252.36H260.15v-.85h10.64Z" transform="translate(-77.29 -86.38)"/><path class="cls-3" d="M274.37,247.56A4.31,4.31,0,0,1,278,245.7a4.13,4.13,0,0,1,3.49,1.73,6.57,6.57,0,0,1,1.29,4,7.57,7.57,0,0,1-1.34,4.51,4.35,4.35,0,0,1-3.73,1.86,4,4,0,0,1-3.45-1.77A7.12,7.12,0,0,1,273,251.8,7,7,0,0,1,274.37,247.56Zm.74,8a3.4,3.4,0,0,0,2.85,1.55,3.19,3.19,0,0,0,2.86-1.56,7,7,0,0,0,1-3.85,6.32,6.32,0,0,0-1.07-3.57,3.38,3.38,0,0,0-2.95-1.61,3.14,3.14,0,0,0-2.82,1.61,6.61,6.61,0,0,0-1,3.54A6.45,6.45,0,0,0,275.11,255.52Z" transform="translate(-77.29 -86.38)"/><path class="cls-3" d="M285.52,257.75l.24-.94.47-.35c.85-.64,1.66-1.29,2.43-2a12.63,12.63,0,0,0,2.13-2.43,4.9,4.9,0,0,0,1-2.81,2.45,2.45,0,0,0-.9-2,3.93,3.93,0,0,0-2.55-.73c-.42,0-.91,0-1.47.08a6.35,6.35,0,0,0-1.15.17l.26-1a6.35,6.35,0,0,1,1-.15c.43,0,.89-.06,1.36-.06a5.23,5.23,0,0,1,3.23.92,2.94,2.94,0,0,1,1.22,2.48,6.13,6.13,0,0,1-1.66,4.15,28.19,28.19,0,0,1-4.35,3.86v0c2.64,0,4.94,0,6.88-.13l-.2.89Z" transform="translate(-77.29 -86.38)"/><path class="cls-3" d="M296.91,255.74a1.16,1.16,0,0,1,.86-.34.88.88,0,0,1,.75.29,1.28,1.28,0,0,1,.21.77,1.31,1.31,0,0,1-.33.89,1.12,1.12,0,0,1-.86.38.85.85,0,0,1-.73-.32,1.4,1.4,0,0,1,.1-1.67Z" transform="translate(-77.29 -86.38)"/><path class="cls-3" d="M313.1,252.43a6.19,6.19,0,0,1-1.24,4.24,4.69,4.69,0,0,1-3.69,1.39,8,8,0,0,1-2.27-.24l.12-1a4.76,4.76,0,0,0,1.92.4,4.2,4.2,0,0,0,3.27-1.08c.63-.73,1-2.15,1-4.26,0-3.84-.06-6.85-.19-9h1.2c-.05,1.27-.07,3.18-.07,5.73Z" transform="translate(-77.29 -86.38)"/><path class="cls-3" d="M325.49,257.77a4.85,4.85,0,0,1-.14-1.1h-.05a6.34,6.34,0,0,1-1.66.94,5.65,5.65,0,0,1-2.16.4c-1.59,0-2.64-.35-3.15-1a4.75,4.75,0,0,1-.76-2.85v-1.45c0-.19,0-.44,0-.78s0-1,0-1.68c0-1-.05-2.07-.14-3.28l1.21-.07q-.09,2-.09,4.56c0,1.38,0,2.49.11,3.34a2.6,2.6,0,0,0,.72,1.8,3.34,3.34,0,0,0,2.12.51,5.19,5.19,0,0,0,3.73-1.27c0-4.57,0-7.52-.09-8.87l1.08-.07,0,.78c0,2.28-.05,4.1-.05,5.44,0,1.59.07,3.14.2,4.67Z" transform="translate(-77.29 -86.38)"/><path class="cls-3" d="M330.92,248.18h0a5.66,5.66,0,0,1,3.73-1.68,4.49,4.49,0,0,1,3,.85,3.68,3.68,0,0,1,1,3v.82c0,.13,0,.33,0,.59,0,.93,0,1.68,0,2.25v3.79h-1.14q.27-3.5.27-7.24a2.75,2.75,0,0,0-.94-2.42,4.22,4.22,0,0,0-2.43-.65,5,5,0,0,0-3.49,1.48c0,.55,0,1.51,0,2.86,0,1,0,1.93,0,2.81l0,2.43c0,.16,0,.4,0,.73h-1.1c.14-2.82.21-4.69.21-5.63a34,34,0,0,0-.46-5.24l1.12-.24Z" transform="translate(-77.29 -86.38)"/><path class="cls-3" d="M341.73,247l1.29-.31c-.08,1.78-.13,3.79-.13,6,0,1.86.06,3.55.18,5.06h-1.2c.11-1.85.17-3.53.17-5.06A48.2,48.2,0,0,0,341.73,247Zm1.48-4.11a1,1,0,0,1,.2.62,1.26,1.26,0,0,1-.2.71.72.72,0,0,1-.64.3.7.7,0,0,1-.56-.26,1,1,0,0,1-.21-.63,1.1,1.1,0,0,1,.24-.7.81.81,0,0,1,.67-.31A.57.57,0,0,1,343.21,242.86Z" transform="translate(-77.29 -86.38)"/><path class="cls-3" d="M352.73,263.65h-1.1q.08-3.43.07-7.89v-3.4q0-7.26-.09-12.34h1.1q-.07,5.44-.07,13.16c0,2.18,0,4.05,0,5.62S352.69,262,352.73,263.65Z" transform="translate(-77.29 -86.38)"/><path class="cls-3" d="M363,247.56a4.31,4.31,0,0,1,3.63-1.86,4.15,4.15,0,0,1,3.5,1.73,6.57,6.57,0,0,1,1.29,4,7.51,7.51,0,0,1-1.35,4.51,4.34,4.34,0,0,1-3.72,1.86,4,4,0,0,1-3.46-1.77,7.12,7.12,0,0,1-1.27-4.27A6.92,6.92,0,0,1,363,247.56Zm.74,8a3.38,3.38,0,0,0,2.85,1.55,3.18,3.18,0,0,0,2.85-1.56,7,7,0,0,0,1-3.85,6.32,6.32,0,0,0-1.07-3.57,3.35,3.35,0,0,0-2.94-1.61,3.14,3.14,0,0,0-2.83,1.61,6.61,6.61,0,0,0-1,3.54A6.38,6.38,0,0,0,363.78,255.52Z" transform="translate(-77.29 -86.38)"/><path class="cls-3" d="M377.89,258.22l-.58,1c-.43.75-.73,1.29-.9,1.61a1.91,1.91,0,0,0-.26.65l-1.1-.24a3.49,3.49,0,0,1,.46-1.07c.3-.55.8-1.4,1.5-2.54l.66-1.1a55.54,55.54,0,0,0,2.76-5.27,14.42,14.42,0,0,0,1.49-4.68q-4.1,0-7.85.09l0-1h9A13.37,13.37,0,0,1,382,250,69.76,69.76,0,0,1,377.89,258.22Z" transform="translate(-77.29 -86.38)"/><path class="cls-3" d="M386.42,255.74a1.16,1.16,0,0,1,.86-.34.88.88,0,0,1,.75.29,1.28,1.28,0,0,1,.21.77,1.31,1.31,0,0,1-.33.89,1.12,1.12,0,0,1-.86.38.85.85,0,0,1-.73-.32,1.4,1.4,0,0,1,.1-1.67Z" transform="translate(-77.29 -86.38)"/><path class="cls-3" d="M401.18,252.36H390.54v-.85h10.64Z" transform="translate(-77.29 -86.38)"/><path class="cls-3" d="M404.77,247.56a4.31,4.31,0,0,1,3.63-1.86,4.12,4.12,0,0,1,3.49,1.73,6.57,6.57,0,0,1,1.29,4,7.57,7.57,0,0,1-1.34,4.51,4.35,4.35,0,0,1-3.73,1.86,4,4,0,0,1-3.45-1.77,7.12,7.12,0,0,1-1.27-4.27A6.92,6.92,0,0,1,404.77,247.56Zm.73,8a3.4,3.4,0,0,0,2.85,1.55,3.18,3.18,0,0,0,2.86-1.56,7,7,0,0,0,1-3.85,6.32,6.32,0,0,0-1.07-3.57,3.38,3.38,0,0,0-2.95-1.61,3.14,3.14,0,0,0-2.82,1.61,6.61,6.61,0,0,0-1,3.54A6.45,6.45,0,0,0,405.5,255.52Z" transform="translate(-77.29 -86.38)"/><path class="cls-3" d="M425.41,253.57a4.18,4.18,0,0,1-1.7,1.32,5.71,5.71,0,0,1-2.31.47,4.38,4.38,0,0,1-4.89-4.85,4.79,4.79,0,0,1,1.38-3.58,4.94,4.94,0,0,1,3.61-1.37,4.18,4.18,0,0,1,3.58,1.87,7.82,7.82,0,0,1,1.34,4.67c0,3.31-.69,5.8-2.05,7.47a8.11,8.11,0,0,1-6,2.82l-.32-.8a7.81,7.81,0,0,0,5.21-2.26,9.43,9.43,0,0,0,2.17-5.76Zm-6.82-.19a3.93,3.93,0,0,0,3,1.13,5.08,5.08,0,0,0,2.15-.51,4.2,4.2,0,0,0,1.67-1.33,8.54,8.54,0,0,0-1.08-4.55,3.33,3.33,0,0,0-2.95-1.76,3.75,3.75,0,0,0-2.79,1.11,3.83,3.83,0,0,0-1.1,2.81A4.25,4.25,0,0,0,418.59,253.38Z" transform="translate(-77.29 -86.38)"/><path class="cls-3" d="M430.16,255.74a1.18,1.18,0,0,1,.87-.34.9.9,0,0,1,.75.29,1.28,1.28,0,0,1,.21.77,1.32,1.32,0,0,1-.34.89,1.11,1.11,0,0,1-.85.38.87.87,0,0,1-.74-.32,1.26,1.26,0,0,1-.22-.76A1.25,1.25,0,0,1,430.16,255.74Z" transform="translate(-77.29 -86.38)"/><path class="cls-3" d="M446.35,252.43a6.19,6.19,0,0,1-1.24,4.24,4.69,4.69,0,0,1-3.69,1.39,8,8,0,0,1-2.27-.24l.12-1a4.79,4.79,0,0,0,1.92.4,4.2,4.2,0,0,0,3.27-1.08c.63-.73,1-2.15,1-4.26,0-3.84-.06-6.85-.19-9h1.2c-.05,1.27-.07,3.18-.07,5.73Z" transform="translate(-77.29 -86.38)"/><path class="cls-3" d="M458.74,257.77a5.5,5.5,0,0,1-.14-1.1h-.05a6.44,6.44,0,0,1-1.65.94,5.74,5.74,0,0,1-2.17.4c-1.59,0-2.64-.35-3.15-1a4.75,4.75,0,0,1-.76-2.85v-1.45c0-.19,0-.44,0-.78s0-1,0-1.68c0-1-.05-2.07-.14-3.28l1.21-.07q-.09,2-.09,4.56c0,1.38,0,2.49.11,3.34a2.6,2.6,0,0,0,.72,1.8,3.34,3.34,0,0,0,2.12.51,5.17,5.17,0,0,0,3.73-1.27c0-4.57,0-7.52-.09-8.87l1.08-.07v.78c0,2.28-.06,4.1-.06,5.44,0,1.59.07,3.14.2,4.67Z" transform="translate(-77.29 -86.38)"/><path class="cls-3" d="M464.17,248.18h0a5.66,5.66,0,0,1,3.73-1.68,4.47,4.47,0,0,1,3,.85,3.68,3.68,0,0,1,1,3v.82c0,.13,0,.33,0,.59,0,.93,0,1.68,0,2.25v3.79h-1.14c.18-2.33.28-4.74.28-7.24a2.75,2.75,0,0,0-1-2.42,4.22,4.22,0,0,0-2.43-.65,5,5,0,0,0-3.49,1.48c0,.55,0,1.51,0,2.86,0,1,0,1.93,0,2.81l0,2.43c0,.16,0,.4,0,.73H463.1c.13-2.82.2-4.69.2-5.63a34,34,0,0,0-.46-5.24l1.12-.24Z" transform="translate(-77.29 -86.38)"/><path class="cls-3" d="M475,247l1.29-.31c-.08,1.78-.13,3.79-.13,6,0,1.86.06,3.55.18,5.06h-1.2c.11-1.85.17-3.53.17-5.06A48.2,48.2,0,0,0,475,247Zm1.48-4.11a1,1,0,0,1,.2.62,1.26,1.26,0,0,1-.2.71.72.72,0,0,1-.64.3.7.7,0,0,1-.56-.26,1,1,0,0,1-.21-.63,1.1,1.1,0,0,1,.24-.7.81.81,0,0,1,.67-.31A.57.57,0,0,1,476.46,242.86Z" transform="translate(-77.29 -86.38)"/><path class="cls-3" d="M484.06,257.75l.24-.94.47-.35c.84-.64,1.65-1.29,2.43-2a13.34,13.34,0,0,0,2.13-2.43,5,5,0,0,0,1-2.81,2.45,2.45,0,0,0-.9-2,3.88,3.88,0,0,0-2.54-.73c-.43,0-.92,0-1.47.08a6.2,6.2,0,0,0-1.15.17l.25-1a6.55,6.55,0,0,1,1-.15c.44,0,.9-.06,1.37-.06a5.25,5.25,0,0,1,3.23.92A3,3,0,0,1,491.3,249a6.1,6.1,0,0,1-1.67,4.15,27.73,27.73,0,0,1-4.35,3.86v0c2.65,0,4.94,0,6.89-.13l-.21.89Z" transform="translate(-77.29 -86.38)"/><path class="cls-3" d="M496.36,247.56A4.31,4.31,0,0,1,500,245.7a4.14,4.14,0,0,1,3.5,1.73,6.57,6.57,0,0,1,1.29,4,7.51,7.51,0,0,1-1.35,4.51,4.33,4.33,0,0,1-3.72,1.86,4,4,0,0,1-3.46-1.77A7.19,7.19,0,0,1,495,251.8,6.92,6.92,0,0,1,496.36,247.56Zm.74,8a3.39,3.39,0,0,0,2.85,1.55,3.18,3.18,0,0,0,2.85-1.56,7,7,0,0,0,1-3.85,6.25,6.25,0,0,0-1.07-3.57,3.35,3.35,0,0,0-2.94-1.61,3.14,3.14,0,0,0-2.82,1.61,6.61,6.61,0,0,0-1,3.54A6.38,6.38,0,0,0,497.1,255.52Z" transform="translate(-77.29 -86.38)"/><path class="cls-3" d="M507.51,257.75l.24-.94.47-.35c.84-.64,1.65-1.29,2.43-2a13.34,13.34,0,0,0,2.13-2.43,5,5,0,0,0,1-2.81,2.45,2.45,0,0,0-.9-2,3.88,3.88,0,0,0-2.54-.73c-.43,0-.92,0-1.47.08a6.2,6.2,0,0,0-1.15.17l.25-1a6.55,6.55,0,0,1,1-.15c.44,0,.9-.06,1.37-.06a5.25,5.25,0,0,1,3.23.92,3,3,0,0,1,1.22,2.48,6.1,6.1,0,0,1-1.67,4.15,28.19,28.19,0,0,1-4.35,3.86v0c2.65,0,4.94,0,6.89-.13l-.21.89Z" transform="translate(-77.29 -86.38)"/><path class="cls-3" d="M525.86,255.73v2.49c0,1.17,0,2.27,0,3.3h-1.1c.1-1.43.14-3.36.14-5.79h-7l-.22-.6a4.59,4.59,0,0,1,.75-1.17c.49-.68,1.19-1.61,2.09-2.8l.49-.65c.13-.19.76-1,1.88-2.49a20.76,20.76,0,0,0,1.68-2.34H526c0,.41-.05,1.64-.07,3.68s0,3.9,0,5.57a18.23,18.23,0,0,0,2.19-.13l-.2.93Zm-4-5L520.13,253a18.41,18.41,0,0,0-1.42,2v0c2,0,4.1,0,6.23-.07q0-5.55,0-8.38h-.07c-.06.11-.24.37-.53.78l-1.84,2.47Z" transform="translate(-77.29 -86.38)"/><path class="cls-4" d="M242.86,115.43l.89,2q-1.87.75-3.48,1.53c.55,1.15,1.16,2.43,1.85,3.83q1.6,3.27,3.12,6.12l-2.53,1.25q-1.31-2.94-2.91-6.23c-.68-1.38-1.31-2.65-1.91-3.8-.85.41-2,1-3.43,1.86l-.89-2Z" transform="translate(-77.29 -86.38)"/><path class="cls-4" d="M256.91,123.35l-2.14,1a3.42,3.42,0,0,1-.49-.73l-.15.06a4.71,4.71,0,0,1-2.4,2.23,3.35,3.35,0,0,1-2.65.2c-.74-.31-1.46-1.27-2.16-2.86l-.33-.82-.38-.91c-.3-.68-.83-1.75-1.6-3.2l2.54-1.21c.42,1.23.86,2.37,1.32,3.43a9.87,9.87,0,0,0,1.66,2.91,1.41,1.41,0,0,0,1.67.21,3.67,3.67,0,0,0,1.65-1.33c-1.41-3.25-2.41-5.43-3-6.56l2.46-1.17q.67,1.78,1.87,4.58A41.77,41.77,0,0,0,256.91,123.35Z" transform="translate(-77.29 -86.38)"/><path class="cls-4" d="M262,111.51l.3,2.41a3.9,3.9,0,0,0-1.52.27,1.87,1.87,0,0,0-1.34,2c1,2.5,1.73,4.42,2.29,5.75l-2.51,1c-.62-1.93-1.17-3.49-1.63-4.69a19.54,19.54,0,0,0-2.11-4.07l2.3-1.19c.37.65.58,1,.63,1.15l.15,0a2.83,2.83,0,0,1,1.8-2.22A4.64,4.64,0,0,1,262,111.51Z" transform="translate(-77.29 -86.38)"/><path class="cls-4" d="M275.13,116.79l-2.54.87q-.61-2.49-1.47-5a3.47,3.47,0,0,0-1.14-1.88,1.71,1.71,0,0,0-1.53-.07,3.47,3.47,0,0,0-1.81,1.45q1.32,3.7,2.35,6.69l-2.57.88q-.85-3-1.44-4.75a19.58,19.58,0,0,0-1.94-4.15l2.35-1.1.51,1,.15,0a4.75,4.75,0,0,1,2.63-2.16,4,4,0,0,1,2.59-.11,3.27,3.27,0,0,1,1.76,2.25c.06.19.14.44.23.75s.19.63.3,1C273.85,113.22,274.38,114.7,275.13,116.79Z" transform="translate(-77.29 -86.38)"/><path class="cls-4" d="M284.21,108.14c.1.32.21.76.32,1.3l-6.19,2a3,3,0,0,0,1.47,1.54,3.24,3.24,0,0,0,2.33.1,12.52,12.52,0,0,0,3-1.36l.36,1.94a10.3,10.3,0,0,1-3.17,1.46,5.22,5.22,0,0,1-4.24-.26,5,5,0,0,1-2.33-3,5.64,5.64,0,0,1,.2-4,4.52,4.52,0,0,1,3.05-2.56,4,4,0,0,1,3.38.21A4.31,4.31,0,0,1,284.21,108.14Zm-2.29.58c-.44-1.48-1.29-2-2.56-1.66s-1.69,1.34-1.46,2.94Z" transform="translate(-77.29 -86.38)"/><path class="cls-4" d="M307.17,108.89l-2.61.59c-.23-1.7-.53-3.33-.88-4.9a4,4,0,0,0-1-2.2,1.83,1.83,0,0,0-1.57-.21,3.16,3.16,0,0,0-1.55,1c.16.83.31,1.56.46,2.21q.38,1.65,1.17,4.89l-2.64.6q-.4-2.74-1-5.3a3.6,3.6,0,0,0-.8-1.79,1.76,1.76,0,0,0-1.65-.22,2.45,2.45,0,0,0-1.62,1.12q.93,3.89,1.62,7l-2.65.6c-.34-2.08-.65-3.7-.91-4.89A21.27,21.27,0,0,0,290.1,103l2.46-.84.4,1,.16,0a4.26,4.26,0,0,1,2.62-1.81,3.28,3.28,0,0,1,3.09.52l.16,0a4.78,4.78,0,0,1,2.62-1.81,4,4,0,0,1,2.69.15,3.43,3.43,0,0,1,1.44,2.44c0,.12.08.36.14.71s.12.6.15.72Q306.39,105.64,307.17,108.89Z" transform="translate(-77.29 -86.38)"/><path class="cls-4" d="M310.25,95.08a1.69,1.69,0,0,1-1.43,2,1.42,1.42,0,0,1-1.17-.24,1.56,1.56,0,0,1-.59-1,1.7,1.7,0,0,1,.25-1.26,1.67,1.67,0,0,1,1.2-.74,1.4,1.4,0,0,1,1.17.23A1.54,1.54,0,0,1,310.25,95.08Zm1.87,12.51-2.67.5c-.16-1.39-.41-3-.74-4.74a28.69,28.69,0,0,0-1.2-4.56l2.8-.82c.15,1.3.42,2.94.79,4.93C311.42,104.6,311.76,106.17,312.12,107.59Z" transform="translate(-77.29 -86.38)"/><path class="cls-4" d="M320.38,104.53l.12,1.8a4.52,4.52,0,0,1-1.7.59,3.22,3.22,0,0,1-2.58-.47,5.16,5.16,0,0,1-1.37-3.24c-.17-1-.35-2.14-.55-3.41-.34,0-.79.15-1.36.29l-.26-2c.52,0,1-.1,1.43-.17-.05-.36-.17-1.29-.38-2.79l2.31-.68q.18,2,.36,3.09c.56-.1,1.39-.26,2.49-.5l.25,2c-1,.12-1.84.24-2.47.35.13.88.28,1.81.44,2.78a5.42,5.42,0,0,0,.75,2.31,1.38,1.38,0,0,0,1.37.39A4.87,4.87,0,0,0,320.38,104.53Z" transform="translate(-77.29 -86.38)"/><path class="cls-4" d="M337,91.21c.2,2.26.44,4.5.7,6.75q.77,6.66-4.68,7.29a5.27,5.27,0,0,1-4.23-1q-1.55-1.32-2-5.14c-.26-2.24-.55-4.45-.87-6.61l2.84-.33q.27,3.4.63,6.55a7.36,7.36,0,0,0,1.14,3.7,2.89,2.89,0,0,0,4.39-.51,7.47,7.47,0,0,0,.23-3.88c-.23-2-.53-4.21-.88-6.5Z" transform="translate(-77.29 -86.38)"/><path class="cls-4" d="M346.62,100.52q.25,3-4.22,3.39a10.19,10.19,0,0,1-2.87-.12l.17-2a7.22,7.22,0,0,0,2.55.25,4.82,4.82,0,0,0,1.65-.34.7.7,0,0,0,.42-.71c0-.49-.65-.91-1.81-1.26a8.16,8.16,0,0,1-2.25-1,2.42,2.42,0,0,1-1.08-1.84,2.66,2.66,0,0,1,.81-2.24,4.51,4.51,0,0,1,2.83-1.06,10.31,10.31,0,0,1,2.82.08l-.17,2a6.61,6.61,0,0,0-2.49-.23c-1.08.08-1.59.4-1.54,1a.81.81,0,0,0,.39.66,7.12,7.12,0,0,0,1.46.53,7,7,0,0,1,2.21.92A2.57,2.57,0,0,1,346.62,100.52Z" transform="translate(-77.29 -86.38)"/><path class="cls-4" d="M355.61,99.94c.13,2-1.3,3.12-4.28,3.31a10,10,0,0,1-2.87-.17l.21-2a7.7,7.7,0,0,0,2.54.29,5,5,0,0,0,1.66-.31.7.7,0,0,0,.43-.71c0-.49-.63-.92-1.78-1.29a7.73,7.73,0,0,1-2.23-1,2.41,2.41,0,0,1-1.06-1.86,2.68,2.68,0,0,1,.86-2.22,4.47,4.47,0,0,1,2.85-1,9.63,9.63,0,0,1,2.82.13l-.22,2a6.74,6.74,0,0,0-2.48-.28c-1.08.07-1.59.38-1.56.93a.83.83,0,0,0,.39.66,7,7,0,0,0,1.44.56,7.1,7.1,0,0,1,2.2,1A2.61,2.61,0,0,1,355.61,99.94Z" transform="translate(-77.29 -86.38)"/><path class="cls-4" d="M360.5,89.69a1.67,1.67,0,0,1-.43,1.22,1.64,1.64,0,0,1-1.28.56,1.41,1.41,0,0,1-1.12-.4,1.52,1.52,0,0,1-.44-1.06,1.7,1.7,0,0,1,.43-1.21,1.72,1.72,0,0,1,1.29-.55,1.43,1.43,0,0,1,1.12.4A1.58,1.58,0,0,1,360.5,89.69Zm0,12.65-2.71.09c0-1.39,0-3,0-4.79a27.67,27.67,0,0,0-.51-4.69l2.9-.4c0,1.31,0,3,.05,5C360.24,99.28,360.34,100.87,360.49,102.34Z" transform="translate(-77.29 -86.38)"/><path class="cls-4" d="M370.65,100.37l-.15,1.93a5.36,5.36,0,0,1-2.49.52,5.3,5.3,0,0,1-4-1.39A4.87,4.87,0,0,1,362.54,98,5.29,5.29,0,0,1,364,94.23a5.18,5.18,0,0,1,4-1.63,7.86,7.86,0,0,1,2.21.25l-.31,2.06a5.35,5.35,0,0,0-2.08-.35,2.36,2.36,0,0,0-1.92.89,3.26,3.26,0,0,0-.68,2.13,3.44,3.44,0,0,0,.87,2.31,3,3,0,0,0,2.39.92A8.19,8.19,0,0,0,370.65,100.37Z" transform="translate(-77.29 -86.38)"/><path class="cls-4" d="M380.78,102.51l-2.68,0c.17-1.7.27-3.35.3-5a4.1,4.1,0,0,0-.41-2.37,1.83,1.83,0,0,0-1.48-.58,3.78,3.78,0,0,0-2.18.7q-.06,4.29,0,7.14l-2.68,0c.11-2.09.19-4.58.24-7.5a59.94,59.94,0,0,0-.2-6.69l2.86-.12c-.14,2.17-.22,4-.25,5.65h.13a4.37,4.37,0,0,1,3.07-1.17,3.86,3.86,0,0,1,2.53.78,3.14,3.14,0,0,1,.88,2.61c0,.12,0,.38,0,.78s0,.65,0,.78C380.79,98.61,380.79,100.29,380.78,102.51Z" transform="translate(-77.29 -86.38)"/><path class="cls-4" d="M389.36,101l-.26,1.79a4.57,4.57,0,0,1-1.79.22,3.22,3.22,0,0,1-2.41-1c-.53-.62-.75-1.78-.67-3.46,0-1,.11-2.16.18-3.45-.34,0-.81,0-1.39,0l.16-2c.52.07,1,.11,1.44.13,0-.35.09-1.29.21-2.81l2.41-.18c-.17,1.33-.27,2.37-.3,3.1.56,0,1.41,0,2.53,0l-.17,2q-1.53-.14-2.49-.18-.07,1.35-.15,2.82a5.31,5.31,0,0,0,.25,2.42,1.36,1.36,0,0,0,1.25.67A4.29,4.29,0,0,0,389.36,101Z" transform="translate(-77.29 -86.38)"/><path class="cls-5" d="M274,196.05v-.48H265.2v.48c0,.44-.62,2.78-4.8,13.54-3.49,9-4.48,11.83-4.76,12.84a52.28,52.28,0,0,0-4.16-7.1c-2.83-4.42-4.94-7.08-6.43-8.11a44.44,44.44,0,0,0,5.46-5.7c3.6-4.25,3.9-5.05,3.9-5.47v-.48h-7.14V196c0,.16-.33,1-3.49,5.4s-4,4.82-4.18,4.89c0-3.16.08-6.61.23-10.26l0-.5H233l0,.5c.18,3.54.27,7.86.27,12.85,0,5.19-.09,9.93-.27,14.08l0,.5h6.84V223c-.15-5-.22-9-.23-12.06h.14c.38,0,1.64.56,4.87,5.76,3.1,5,3.43,6.07,3.43,6.31v.48h14.68V223a39,39,0,0,1,1.82-7.26h8.86c1.45,5,1.76,6.68,1.76,7.26v.49h7.6V223c0-.51-.46-2.49-4.41-13.61C274.56,198.74,274,196.46,274,196.05ZM272,210.84h-6.2c1.9-5.59,2.76-8.3,3.15-9.65C269.38,202.6,270.23,205.36,272,210.84Z" transform="translate(-77.29 -86.38)"/><path class="cls-5" d="M291.56,218.34c.15-2.4.23-5.56.23-9.42,0-5.42.09-9.74.25-12.84l0-.51h-6.83l0,.51c.16,3.38.25,7.7.25,12.84,0,5.59-.09,10.33-.25,14.08l0,.51h18.18l.2-5.51-.52,0C299.06,218.22,295.18,218.33,291.56,218.34Z" transform="translate(-77.29 -86.38)"/><path class="cls-5" d="M312.41,218.34c.15-2.4.23-5.57.23-9.42,0-5.4.08-9.72.25-12.84l0-.51h-6.84l0,.51c.16,3.34.24,7.66.24,12.84,0,5.64-.08,10.38-.25,14.08l0,.51h18.19l.2-5.51-.53,0C319.9,218.22,316,218.33,312.41,218.34Z" transform="translate(-77.29 -86.38)"/><path class="cls-5" d="M350.17,195.57H344l0,.5c.19,3.93.29,7.8.29,11.5,0,1.82.09,3.84.28,6a82.17,82.17,0,0,0-5.47-9c-4.54-6.81-5-8.21-5-8.5v-.48h-7.15l0,.51c.21,3.51.31,7.83.31,12.84s-.1,9.83-.31,14.08l0,.51H333l0-.51c-.19-4.84-.29-9-.29-12.45,0-1.8-.1-3.78-.28-5.9a77.88,77.88,0,0,0,6,9.68c4.95,7,5.57,8.44,5.61,8.69v.49h6.11l0-.51c-.19-4.15-.29-8.89-.29-14.08s.1-9.46.29-12.84Z" transform="translate(-77.29 -86.38)"/><path class="cls-5" d="M371.11,196.05v-.48h-8.79v.48c0,.44-.62,2.78-4.81,13.54-4.87,12.53-4.87,13.16-4.87,13.43v.49h7.2V223a39.23,39.23,0,0,1,1.82-7.26h8.86c1.45,4.94,1.76,6.68,1.76,7.26v.49h7.6V223c0-.51-.46-2.49-4.41-13.61C371.68,198.74,371.11,196.46,371.11,196.05Zm-1.95,14.79H363c1.9-5.59,2.76-8.3,3.15-9.65C366.48,202.55,367.31,205.26,369.16,210.84Z" transform="translate(-77.29 -86.38)"/><path class="cls-5" d="M396.57,218.52a8,8,0,0,1-6.46-2.69,9.63,9.63,0,0,1-2.32-6.44,9.84,9.84,0,0,1,2-6.18c1.28-1.66,3.2-2.47,5.87-2.47a15,15,0,0,1,4.53.76l.54.18.88-5.78-.43-.11a20,20,0,0,0-4.9-.59c-4.7,0-8.46,1.5-11.18,4.46A15.06,15.06,0,0,0,381,210.12a13.92,13.92,0,0,0,3.85,9.87c2.56,2.7,6.32,4.07,11.17,4.07a25.78,25.78,0,0,0,5.91-.71l.35-.08.43-5.81-.67.19A19.43,19.43,0,0,1,396.57,218.52Z" transform="translate(-77.29 -86.38)"/><path class="cls-5" d="M428.49,208.92c0-5.06.09-9.38.29-12.84l0-.51h-6.87l0,.5c.16,4,.24,7.49.25,10.27h-9.56c0-3.16.09-6.61.25-10.27l0-.5H406l0,.5c.18,3.65.27,8,.27,12.85s-.09,9.55-.27,14.09l0,.5h6.86V223c-.13-4.61-.2-8.44-.21-11.4h9.48c0,3.2-.08,7-.21,11.4v.5h6.86l0-.51C428.58,218.94,428.49,214.2,428.49,208.92Z" transform="translate(-77.29 -86.38)"/><path class="cls-6" d="M448.69,218.22a23.46,23.46,0,0,0,5.23-3.88,9.93,9.93,0,0,0,3.17-7.34,6.75,6.75,0,0,0-2.5-5.51c-1.63-1.32-4-2-7-2a23.22,23.22,0,0,0-5.46.49l-.33.08-.51,5,.62-.1a19.41,19.41,0,0,1,3.28-.3c3.65,0,5.43,1.24,5.43,3.79,0,3.22-3,6.51-8.89,9.8l-.22.12-.54,5.14h17.46l.55-5.63-.56,0C454.78,218.09,451.53,218.19,448.69,218.22Z" transform="translate(-77.29 -86.38)"/><path class="cls-6" d="M472.94,199.22a9.45,9.45,0,0,0-7.95,3.63c-1.81,2.37-2.73,5.66-2.73,9.78s.86,7,2.56,8.89,4.26,2.85,7.58,2.85,6.09-1.09,7.9-3.23,2.72-5.35,2.72-9.57c0-3.93-.85-7-2.53-9.11S476.24,199.22,472.94,199.22Zm3.76,13.71c0,4.24-1.25,6.3-3.82,6.3a3.31,3.31,0,0,1-3.18-1.84,13.72,13.72,0,0,1-1.06-6.21c0-4.61,1.24-6.84,3.8-6.84a3.28,3.28,0,0,1,3.2,2.26A16.14,16.14,0,0,1,476.7,212.93Z" transform="translate(-77.29 -86.38)"/><path class="cls-6" d="M494.1,218.22a23.64,23.64,0,0,0,5.22-3.88,9.89,9.89,0,0,0,3.17-7.34,6.77,6.77,0,0,0-2.49-5.51c-1.63-1.32-4-2-7-2a23.25,23.25,0,0,0-5.47.49l-.33.08-.51,5,.63-.1a19.2,19.2,0,0,1,3.27-.3c3.66,0,5.43,1.24,5.43,3.79,0,3.22-3,6.51-8.89,9.8l-.22.12-.53,5.14h17.45l.55-5.63-.56,0C500.19,218.09,496.94,218.19,494.1,218.22Z" transform="translate(-77.29 -86.38)"/><path class="cls-6" d="M528.59,215l-.59.06c-1.13.11-2.27.18-3.39.19,0-5.29.1-10.35.28-15.05l0-.5h-6.43l-.44-.05,0,.44c-.07.22-.76,1.42-5.54,7.86-5.68,7.65-5.68,7.93-5.67,8.25l.5,4.52h11.11c0,2.86-.08,6-.2,9.44l0,.5h6.73l0-.5c-.16-3.69-.25-6.86-.26-9.44H528Zm-16.27.49c.33-.53,1.22-1.81,3.46-4.84,1.62-2.19,2.55-3.52,3.09-4.33-.12,2.71-.21,5.7-.3,9.07C516.06,215.44,514,215.47,512.32,215.48Z" transform="translate(-77.29 -86.38)"/></g></svg>