<?xml version="1.0" encoding="utf-8"?>
<!-- Generator: Adobe Illustrator 27.3.1, SVG Export Plug-In . SVG Version: 6.00 Build 0)  -->
<svg version="1.1" id="Calque_1" xmlns="http://www.w3.org/2000/svg" xmlns:xlink="http://www.w3.org/1999/xlink" x="0px" y="0px"
	 viewBox="0 0 434.6 158" style="enable-background:new 0 0 434.6 158;" xml:space="preserve">
<style type="text/css">
	.st0{fill:#FF3333;}
	.st1{fill:#FFFFFF;}
</style>
<polygon class="st0" points="355.6,79 434.6,0 0,0 0,158 434.6,158 "/>
<path class="st1" d="M266.3,113.2c-0.3,0-0.5-0.1-0.5-0.4l-0.7,0.2c0,0.6,0.4,0.8,1,0.8c0.3,0,0.7-0.1,0.9-0.2
	c0.3-0.2,0.5-0.5,0.6-0.8s0-0.6-0.2-0.7s-0.5-0.2-0.7-0.3c-0.2,0-0.4-0.1-0.4-0.3c0.1-0.2,0.3-0.3,0.5-0.3c0.3,0,0.4,0.1,0.4,0.4
	l0.7-0.2c0-0.5-0.4-0.7-1-0.7c-0.3,0-0.6,0.1-0.8,0.2c-0.3,0.2-0.4,0.4-0.5,0.7c-0.2,0.7,0.3,0.8,0.8,0.9c0.2,0,0.5,0.1,0.4,0.3
	C266.8,113.1,266.5,113.2,266.3,113.2 M253.5,98.9h-9.3l-0.9,3.5h9.3L253.5,98.9z M265.3,115.6h1.4l0.2-0.6h-2.1l-0.8,3h0.7l0.3-1.2
	h1.1l0.1-0.6h-1.1L265.3,115.6z M256.4,107.2l-2.7,10.7h3.6l2.7-10.7H256.4z M255.7,107.2h-9.3l-0.9,3.5h9.3L255.7,107.2z
	 M261.8,103.1L258,118h3.6l3.8-14.9H261.8z M265.2,106.6h9.3l0.9-3.5h-9.3L265.2,106.6z M266.3,102.4h9.3l0.9-3.5h-9.3L266.3,102.4z
	 M271.7,112.8v-2.1H271l0.1,3h0.8l1.7-3H273L271.7,112.8z M268.2,115.5c0.3,0,0.4,0.1,0.4,0.4l0.6-0.2c0-0.5-0.4-0.7-1-0.7
	c-0.3,0-0.5,0.1-0.8,0.2c-0.3,0.2-0.4,0.4-0.5,0.6c-0.2,0.7,0.3,0.8,0.8,0.9c0.2,0,0.5,0.1,0.4,0.3c-0.1,0.2-0.4,0.4-0.6,0.4
	c-0.3,0-0.5-0.1-0.5-0.4l-0.7,0.1c0,0.6,0.4,0.8,1,0.8c0.3,0,0.6-0.1,0.9-0.2c0.3-0.2,0.5-0.5,0.6-0.8s0-0.5-0.2-0.7
	c-0.2-0.1-0.5-0.2-0.7-0.3c-0.2,0-0.4-0.1-0.4-0.3C267.8,115.5,268,115.5,268.2,115.5 M271.2,115c-0.9,0-1.5,0.8-1.7,1.6
	c-0.2,0.8,0,1.5,0.8,1.5c0.3,0,0.6-0.1,0.9-0.4v0.3h0.3l0.4-1.6h-1.2l-0.1,0.6h0.6c-0.1,0.3-0.3,0.5-0.6,0.5c-0.5,0-0.5-0.6-0.4-0.9
	c0.1-0.4,0.3-1,0.8-1c0.3,0,0.4,0.3,0.4,0.6l0.7-0.1C272.2,115.3,271.9,115,271.2,115 M269.1,113.7l0.6-2.4h0.8l0.2-0.6h-2.2
	l-0.2,0.6h0.8l-0.6,2.4H269.1z M259.8,94.1h3.6l2.7-10.7h-3.6L259.8,94.1z M254.4,98.3h3.6l3.8-14.9h-3.6L254.4,98.3z M246.5,106.6
	h9.3l0.9-3.5h-9.3L246.5,106.6z M254.6,94.8h-9.3l-0.9,3.5h9.3L254.6,94.8z M274.3,90.7H265l-0.9,3.5h9.3L274.3,90.7z M263.1,98.3
	h9.3l0.9-3.5H264L263.1,98.3z M116,69.1c-1.5-7.6-9.7-11.5-9.7-18.7c0-5.3,4.2-8.2,10-8.2c6.8,0,9.3,3.5,10.3,6.6h2.8
	c-0.6-4-4.8-9.3-13.1-9.3c-8.5,0-12.8,5.2-12.8,11c0,7.6,8,11.8,9.6,18.6H116z M79.2,108.1c6.9-6.6,10.9-10,10.9-14.8
	c0-5-3.7-10.5-11.1-10.5c-7.6,0-11.9,5.7-11.9,11.4c0,2.3,0.7,5,2.9,7.5l13-12.8h-3.6l-8.8,8.7c-0.6-1.4-0.8-2.3-0.8-3.4
	c0-4.4,3.4-8.6,9.1-8.6s8.3,3.7,8.3,7.7s-2.9,6.5-8.8,12l-10.5,10v2.7h22.6v-2.7H71.7L79.2,108.1z M12.1,108.1
	C19,101.5,23,98.1,23,93.3c0-5-3.7-10.5-11.1-10.5C4.3,82.9,0,88.6,0,94.2c0,2.3,0.7,5,2.9,7.5L16,88.9h-3.6l-8.8,8.7
	c-0.6-1.4-0.8-2.3-0.8-3.4c0-4.4,3.4-8.6,9.1-8.6s8.3,3.7,8.3,7.7s-2.9,6.5-8.8,12l-10.5,10v2.7h22.6v-2.7H4.6L12.1,108.1z
	 M239.1,70.2L213.3,40h-2.8v34.6h2.8V44.2l23.8,27.7h-16.9v2.7h21.7V40h-2.8V70.2z M116.9,45.5c1.6,8.2,10.4,11.4,10.4,18.5
	c0,5.5-5,8.4-10.8,8.4c-7.3,0-10.6-4.4-11.4-8.5h-2.8c0.6,5.9,5.7,11.3,14.2,11.3c8.2,0,13.5-4.9,13.5-11.2c0-7.7-8.6-11-10.3-18.4
	h-2.8V45.5z M107.2,93.4l3.8-4.5h-3.3l-9.5,11.3V86.1h19.5v-2.7H95.5v24l9.3-11.1c6.2-1.2,11.9,3.3,11.9,9.7c0,5.4-4.7,9.7-9.8,9.7
	c-4.3,0-8.1-3-9.5-6.2l-1.8,1.9c1.9,3.9,6.2,7,11.4,7c6.8,0,12.5-5.7,12.5-12.4C119.4,99.2,113.8,93.2,107.2,93.4 M97.3,40H75.5v2.7
	h19v16.1c0,6.5-4.1,13.4-12.9,13.4s-12.9-6.9-12.9-13.4V40h-2.8v18.8c0,8.5,5.6,16.1,15.8,16.1s15.8-7.6,15.8-16.1V40H97.3z
	 M130.6,74.6h3.3l15.9-29.2l14.5,26.5h-22l-1.5,2.7h28.3l-19.3-35L130.6,74.6z M47.3,83v2.7c7.2,1,12.8,7.2,12.8,14.9
	s-5.6,14-12.8,15v2.7c8.8-1,15.6-8.5,15.6-17.7C62.9,91.5,56.1,84,47.3,83 M27.6,100.7c0,9.2,6.8,16.7,15.6,17.7v-2.7
	c-7.2-1-12.8-7.3-12.8-15s5.6-14,12.8-15V83C34.5,84,27.6,91.5,27.6,100.7 M276.5,40h-28.6v34.6h28.6v-2.7h-25.8V44.1l13.1,15.6h-9
	v2.6h14.5l-16.5-19.5h23.6V40H276.5z M27.6,71.9H3.3V40H0.5v34.6h28.9l15.9-29.2l14.5,26.5h-22l-1.5,2.7h28.3l-19.3-35L27.6,71.9z
	 M201.3,70.2L175.4,40h-2.8v34.6h2.8V44.2l23.8,27.7h-16.9v2.7H204V40h-2.8v30.2H201.3z"/>
</svg>
