<?xml version="1.0" encoding="UTF-8" standalone="no"?>
<!DOCTYPE svg PUBLIC "-//W3C//DTD SVG 1.1//EN" "http://www.w3.org/Graphics/SVG/1.1/DTD/svg11.dtd">
<svg width="100%" height="100%" viewBox="0 0 550 120" version="1.1" xmlns="http://www.w3.org/2000/svg" xmlns:xlink="http://www.w3.org/1999/xlink" xml:space="preserve" xmlns:serif="http://www.serif.com/" style="fill-rule:evenodd;clip-rule:evenodd;stroke-linecap:round;stroke-miterlimit:1;">
    <g transform="matrix(1,0,0,1,-112.657,-93.2583)">
        <g transform="matrix(1.02,0,0,1,-3.61054,0)">
            <g transform="matrix(64,0,0,64,557.423,175.141)">
            </g>
            <text x="180.527px" y="175.141px" style="font-family:'SnellRoundhand-Bold', 'Snell Roundhand';font-weight:700;font-style:italic;font-size:64px;">C<tspan x="221.231px 250.031px 281.263px 304.175px 318.767px 334.575px 363.375px 378.543px 412.143px 426.735px 455.535px 486.767px 510.831px 533.743px " y="175.141px 175.141px 175.141px 175.141px 175.141px 175.141px 175.141px 175.141px 175.141px 175.141px 175.141px 175.141px 175.141px 175.141px ">harity Singers</tspan></text>
        </g>
    </g>
    <g transform="matrix(0.541406,-0.0100975,0.0100975,0.541406,-18.6966,10.0254)">
        <g>
            <g transform="matrix(1,0,0,1,-13.3575,10.0834)">
                <path d="M123.832,26.316C123.832,26.316 114.682,36.262 107.155,78.817C105.671,87.207 105.151,99.328 106.78,105.395" style="fill:none;stroke:black;stroke-width:1.48px;"/>
            </g>
            <g transform="matrix(1,0,0,1,3.1998,0)">
                <path d="M88.483,89.474C88.483,89.474 85.043,106.195 87.704,115.72C87.836,116.194 69.041,112.856 66.061,116.469C65.891,116.675 62.936,91.762 66.06,88.828C66.246,88.653 82.371,92.683 88.483,89.474Z"/>
            </g>
        </g>
    </g>
    <g transform="matrix(0.541406,-0.0100975,0.0100975,0.541406,0.602392,-0.226208)">
        <g>
            <g transform="matrix(1,0,0,1,-13.3575,10.0834)">
                <path d="M123.832,26.316C123.832,26.316 114.682,36.262 107.155,78.817C105.671,87.207 105.151,99.328 106.78,105.395" style="fill:none;stroke:black;stroke-width:1.48px;"/>
            </g>
            <g transform="matrix(1,0,0,1,3.1998,0)">
                <path d="M88.483,89.474C88.483,89.474 85.043,106.195 87.704,115.72C87.836,116.194 69.041,112.856 66.061,116.469C65.891,116.675 62.936,91.762 66.06,88.828C66.246,88.653 82.371,92.683 88.483,89.474Z"/>
            </g>
        </g>
    </g>
    <g transform="matrix(0.541406,-0.0100975,0.0100975,0.541406,462.416,-2.14541)">
        <g>
            <g transform="matrix(1,0,0,1,-13.3575,10.0834)">
                <path d="M123.832,26.316C123.832,26.316 114.682,36.262 107.155,78.817C105.671,87.207 105.151,99.328 106.78,105.395" style="fill:none;stroke:black;stroke-width:1.48px;"/>
            </g>
            <g transform="matrix(1,0,0,1,3.1998,0)">
                <path d="M88.483,89.474C88.483,89.474 85.043,106.195 87.704,115.72C87.836,116.194 69.041,112.856 66.061,116.469C65.891,116.675 62.936,91.762 66.06,88.828C66.246,88.653 82.371,92.683 88.483,89.474Z"/>
            </g>
        </g>
    </g>
    <g transform="matrix(0.541406,-0.0100975,0.0100975,0.541406,440.299,8.78603)">
        <g>
            <g transform="matrix(1,0,0,1,-13.3575,10.0834)">
                <path d="M123.832,26.316C123.832,26.316 114.682,36.262 107.155,78.817C105.671,87.207 105.151,99.328 106.78,105.395" style="fill:none;stroke:black;stroke-width:1.48px;"/>
            </g>
            <g transform="matrix(1,0,0,1,3.1998,0)">
                <path d="M88.483,89.474C88.483,89.474 85.043,106.195 87.704,115.72C87.836,116.194 69.041,112.856 66.061,116.469C65.891,116.675 62.936,91.762 66.06,88.828C66.246,88.653 82.371,92.683 88.483,89.474Z"/>
            </g>
        </g>
    </g>
    <g transform="matrix(0.541406,-0.0100975,0.0100975,0.541406,464.643,25.8178)">
        <g>
            <g transform="matrix(1,0,0,1,-13.3575,10.0834)">
                <path d="M123.832,26.316C123.832,26.316 114.682,36.262 107.155,78.817C105.671,87.207 105.151,99.328 106.78,105.395" style="fill:none;stroke:black;stroke-width:1.48px;"/>
            </g>
            <g transform="matrix(1,0,0,1,3.1998,0)">
                <path d="M88.483,89.474C88.483,89.474 85.043,106.195 87.704,115.72C87.836,116.194 69.041,112.856 66.061,116.469C65.891,116.675 62.936,91.762 66.06,88.828C66.246,88.653 82.371,92.683 88.483,89.474Z"/>
            </g>
        </g>
    </g>
    <g transform="matrix(1,0,0,1,-22.2368,-87.4803)">
        <path d="M34.771,130.686C34.771,130.686 121.037,131.055 191.243,132.356C238.381,133.23 275.742,136.205 286.26,136.406C303.182,136.731 546.514,137.733 560.136,136.513" style="fill:none;stroke:black;stroke-width:0.53px;stroke-linejoin:round;stroke-miterlimit:1.5;"/>
    </g>
    <g transform="matrix(1,0,0,1,-21.9543,-81.1004)">
        <path d="M42.765,130.782C42.765,130.782 104.662,134.121 167.651,132.991C223.717,131.986 278.415,135.425 286.26,136.406C295.332,137.541 359.535,137.275 420.114,138.543C474.346,139.679 547.975,137.899 554.406,137.323" style="fill:none;stroke:black;stroke-width:0.53px;stroke-linejoin:round;stroke-miterlimit:1.5;"/>
    </g>
    <g transform="matrix(1,0,0,1,-20.0382,-71.1375)">
        <path d="M34.856,130.686C34.856,130.686 137.689,133.472 151.937,132.554C212.98,128.621 277.705,135.154 286.26,136.406C315.942,140.752 366.427,137.72 429.561,140.294C479.227,142.319 548.532,137.606 554.532,137.069" style="fill:none;stroke:black;stroke-width:0.53px;stroke-linejoin:round;stroke-miterlimit:1.5;"/>
    </g>
    <g transform="matrix(1,0,0,1,-20.88,-59.9645)">
        <path d="M41.3,130.686C41.3,130.686 86.125,129.146 140,131.575C204.345,134.477 277.302,131.4 286.481,132.261C302.744,133.787 509.122,136.633 544.82,135.504" style="fill:none;stroke:black;stroke-width:0.53px;stroke-linejoin:round;stroke-miterlimit:1.5;"/>
    </g>
    <g transform="matrix(1,0,0,1,-22.5063,-51.3597)">
        <path d="M33.874,130.736C33.874,130.736 282.345,133.36 299.199,131.804C313.858,130.451 422.04,139.782 489.44,138.985C512.237,138.716 539.3,138.369 542.742,138.061" style="fill:none;stroke:black;stroke-width:0.53px;stroke-linejoin:round;stroke-miterlimit:1.5;"/>
    </g>
</svg>
